STARTFONT 2.1
COMMENT
COMMENT Converted from OpenType font "Q:\font stuff\winfont\SinsAgencyBold.ttf" by "otf2bdf 3.0".
COMMENT
FONT -FreeType-AgencyFB Bold-Medium-R-Normal--40-400-72-72-P-139-ISO10646-1
SIZE 40 72 72
FONTBOUNDINGBOX 39 46 -2 -8
STARTPROPERTIES 19
FOUNDRY "FreeType"
FAMILY_NAME "AgencyFB Bold"
WEIGHT_NAME "Medium"
SLANT "R"
SETWIDTH_NAME "Normal"
ADD_STYLE_NAME ""
PIXEL_SIZE 32
POINT_SIZE 400
RESOLUTION_X 72
RESOLUTION_Y 72
SPACING "P"
AVERAGE_WIDTH 139
CHARSET_REGISTRY "ISO10646"
CHARSET_ENCODING "1"
FONT_ASCENT 37
FONT_DESCENT 4
COPYRIGHT "Copyright (c) The Font Bureau, Inc, 1995. All rights reserved."
_OTF_FONTFILE "Q:\font stuff\winfont\SinsAgencyBold.ttf"
_OTF_PSNAME "AgencyFB-Bold"
ENDPROPERTIES
CHARS 250
STARTCHAR 0020
ENCODING 32
SWIDTH 200 0
DWIDTH 8 0
BBX 0 0 0 0
BITMAP
ENDCHAR
STARTCHAR 0021
ENCODING 33
SWIDTH 225 0
DWIDTH 9 0
BBX 5 31 2 0
BITMAP
F8
F8
F8
F8
F8
F8
F8
F8
F0
F0
F0
F0
F0
F0
F0
F0
F0
F0
F0
F0
F0
F0
F0
F0
00
00
F8
F8
F8
F8
F8
ENDCHAR
STARTCHAR 0022
ENCODING 34
SWIDTH 350 0
DWIDTH 14 0
BBX 11 10 1 21
BITMAP
F9E0
79E0
79E0
79E0
79E0
71E0
71E0
71E0
70E0
70E0
ENDCHAR
STARTCHAR 0023
ENCODING 35
SWIDTH 550 0
DWIDTH 22 0
BBX 20 31 1 0
BITMAP
01E3C0
03E3C0
03C3C0
03C780
03C780
03C780
03C780
03C780
7FFFF0
7FFFF0
7FFFF0
7FFFF0
078F00
078F00
0F0F00
0F0F00
0F1E00
0F1E00
0F1E00
0F1E00
FFFFC0
FFFFC0
FFFFC0
1E3C00
1E3C00
1E3C00
3E3C00
3C3C00
3C7800
3C7800
3C7800
ENDCHAR
STARTCHAR 0024
ENCODING 36
SWIDTH 450 0
DWIDTH 18 0
BBX 14 35 2 -3
BITMAP
0780
0780
0780
FFFC
FFFC
FFFC
F03C
F03C
F03C
F03C
F03C
F03C
F800
FC00
7E00
3F00
1F80
0FC0
07E0
03F0
01F8
00FC
007C
F03C
F03C
F03C
F03C
F03C
F03C
FFFC
FFFC
FFFC
7FF8
0780
0780
ENDCHAR
STARTCHAR 0025
ENCODING 37
SWIDTH 650 0
DWIDTH 26 0
BBX 24 31 1 0
BITMAP
3F801C
7FC03C
7FC038
F1C078
F1C0F0
F1C0F0
F1C1E0
F1C1C0
F1C3C0
F1C380
F1C780
F1C700
F1CF00
FFDE00
7FDE00
3FBC00
003FFE
007BFF
0073FF
00F38F
00E38F
01E38F
01C38F
03C38F
07838F
07838F
0F038F
0E038F
1E03FF
1C03FF
3C03FE
ENDCHAR
STARTCHAR 0026
ENCODING 38
SWIDTH 500 0
DWIDTH 20 0
BBX 17 31 2 0
BITMAP
3FF000
FFFC00
FFFE00
FFFE00
F03E00
F03E00
F03E00
F03E00
F03E00
F03E00
F00000
F00000
FC0000
7FFF80
3FFF80
3FFF80
7FFF80
FC3C00
F03C00
F03C00
F03C00
F03C00
F03C00
F03C00
F03C00
F03C00
F03C00
FFFC00
FFFC00
FFFC00
7FFC00
ENDCHAR
STARTCHAR 0027
ENCODING 39
SWIDTH 175 0
DWIDTH 7 0
BBX 5 10 1 21
BITMAP
F8
78
78
78
78
70
70
70
70
70
ENDCHAR
STARTCHAR 0028
ENCODING 40
SWIDTH 300 0
DWIDTH 12 0
BBX 9 35 2 -4
BITMAP
0780
0F80
1F00
1F00
3E00
3E00
3C00
7C00
7C00
7800
F800
F800
F800
F800
F800
F800
F800
F800
F800
F800
F800
F800
F800
F800
F800
7800
7C00
7C00
7C00
3E00
3E00
1E00
1F00
0F00
0F80
ENDCHAR
STARTCHAR 0029
ENCODING 41
SWIDTH 300 0
DWIDTH 12 0
BBX 10 35 1 -4
BITMAP
F800
F800
7C00
7C00
3E00
3E00
1F00
1F00
1F00
0F80
0F80
0F80
0F80
0F80
0780
0780
07C0
07C0
07C0
0780
0780
0F80
0F80
0F80
0F80
0F80
0F00
1F00
1F00
1E00
3E00
3C00
7C00
7800
F800
ENDCHAR
STARTCHAR 002A
ENCODING 42
SWIDTH 450 0
DWIDTH 18 0
BBX 15 15 2 15
BITMAP
0780
0780
4788
679C
FBBC
FFFE
7FF8
0FE0
1FF0
FFFC
FBFC
77BC
6788
0780
0780
ENDCHAR
STARTCHAR 002B
ENCODING 43
SWIDTH 475 0
DWIDTH 19 0
BBX 17 15 1 6
BITMAP
03E000
03E000
03E000
03E000
03E000
03E000
FFFF80
FFFF80
FFFF80
FFFF80
03E000
03E000
03E000
03E000
03E000
ENDCHAR
STARTCHAR 002C
ENCODING 44
SWIDTH 175 0
DWIDTH 7 0
BBX 5 8 1 -4
BITMAP
78
78
F8
F0
F0
F0
F0
E0
ENDCHAR
STARTCHAR 002D
ENCODING 45
SWIDTH 300 0
DWIDTH 12 0
BBX 10 4 1 9
BITMAP
FFC0
FFC0
FFC0
FFC0
ENDCHAR
STARTCHAR 002E
ENCODING 46
SWIDTH 175 0
DWIDTH 7 0
BBX 5 5 1 0
BITMAP
F8
F8
F8
F8
F8
ENDCHAR
STARTCHAR 002F
ENCODING 47
SWIDTH 450 0
DWIDTH 18 0
BBX 16 31 1 0
BITMAP
000F
001F
001E
001E
003C
003C
007C
0078
0078
00F8
00F0
01F0
01E0
01E0
03E0
03C0
07C0
0780
0780
0F80
0F00
1F00
1E00
1E00
3E00
3C00
7C00
7800
7800
F800
F000
ENDCHAR
STARTCHAR 0030
ENCODING 48
SWIDTH 475 0
DWIDTH 19 0
BBX 15 31 2 0
BITMAP
3FF0
FFFC
FFFE
FFFE
F03E
F03E
F03E
F03E
F03E
F03E
F03E
F03E
F03E
F03E
F03E
F03E
F03E
F03E
F03E
F03E
F03E
F03E
F03E
F03E
F03E
F03E
F03E
FFFE
FFFE
FFFE
7FFC
ENDCHAR
STARTCHAR 0031
ENCODING 49
SWIDTH 225 0
DWIDTH 9 0
BBX 6 31 1 0
BITMAP
3C
3C
3C
3C
7C
7C
7C
7C
FC
3C
3C
3C
3C
3C
3C
3C
3C
3C
3C
3C
3C
3C
3C
3C
3C
3C
3C
3C
3C
3C
3C
ENDCHAR
STARTCHAR 0032
ENCODING 50
SWIDTH 450 0
DWIDTH 18 0
BBX 15 31 1 0
BITMAP
1FF8
7FFE
7FFE
7FFE
781E
781E
781E
781E
781E
781E
003E
003E
007C
007C
00F8
00F0
01F0
03E0
03E0
07C0
07C0
0F80
0F00
1F00
3E00
3E00
7C00
7FFE
FFFE
FFFE
FFFE
ENDCHAR
STARTCHAR 0033
ENCODING 51
SWIDTH 450 0
DWIDTH 18 0
BBX 15 31 2 0
BITMAP
3FF0
FFFC
FFFE
FFFE
F03E
F03E
F03E
F03E
F03E
F03E
003E
007E
00FC
03F8
07E0
07E0
03F8
01FC
007E
003E
003E
F03E
F03E
F03E
F03E
F03E
F03E
FFFE
FFFE
FFFC
7FFC
ENDCHAR
STARTCHAR 0034
ENCODING 52
SWIDTH 450 0
DWIDTH 18 0
BBX 16 31 1 0
BITMAP
01F0
01F0
01E0
03E0
03E0
03C0
07C0
07C0
0780
0F80
0F80
1F00
1F3C
1E3C
3E3C
3E3C
3C3C
7C3C
7C3C
783C
F83C
FFFF
FFFF
FFFF
FFFF
003C
003C
003C
003C
003C
003C
ENDCHAR
STARTCHAR 0035
ENCODING 53
SWIDTH 450 0
DWIDTH 18 0
BBX 14 31 2 0
BITMAP
FFFC
FFFC
FFFC
FFFC
F800
F000
F000
F000
F000
F000
F000
FFF0
FFFC
FFFC
FFFC
003C
003C
003C
003C
003C
003C
F03C
F03C
F03C
F03C
F03C
F03C
FFFC
FFFC
FFFC
7FFC
ENDCHAR
STARTCHAR 0036
ENCODING 54
SWIDTH 450 0
DWIDTH 18 0
BBX 15 31 2 0
BITMAP
3FF0
FFFC
FFFE
FFFE
F03E
F03E
F03E
F03E
F03E
F03E
F000
F000
F000
F000
FFFC
FFFE
FFFE
F03E
F03E
F03E
F03E
F03E
F03E
F03E
F03E
F03E
F03E
FFFE
FFFE
FFFC
7FFC
ENDCHAR
STARTCHAR 0037
ENCODING 55
SWIDTH 425 0
DWIDTH 17 0
BBX 15 31 1 0
BITMAP
FFFE
FFFE
FFFE
FFFE
F83E
F83E
F83C
F83C
F87C
007C
0078
0078
00F8
00F8
00F0
00F0
01F0
01F0
01E0
01E0
03E0
03E0
03C0
07C0
07C0
07C0
0780
0F80
0F80
0F80
0F00
ENDCHAR
STARTCHAR 0038
ENCODING 56
SWIDTH 475 0
DWIDTH 19 0
BBX 15 31 2 0
BITMAP
3FF8
FFFC
FFFE
FFFE
F03E
F03E
F03E
F03E
F03E
F03E
F03E
F03E
FC7E
7FFC
1FF0
1FF0
7FF8
FCFE
F83E
F03E
F03E
F03E
F03E
F03E
F03E
F03E
F03E
FFFE
FFFE
FFFE
7FFC
ENDCHAR
STARTCHAR 0039
ENCODING 57
SWIDTH 450 0
DWIDTH 18 0
BBX 15 31 2 0
BITMAP
3FF0
FFFC
FFFE
FFFE
F03E
F03E
F03E
F03E
F03E
F03E
F03E
F03E
F03E
F03E
FFFE
FFFE
FFFE
7FFE
003E
003E
003E
003E
F03E
F03E
F03E
F03E
F03E
FFFE
FFFE
FFFC
7FFC
ENDCHAR
STARTCHAR 003A
ENCODING 58
SWIDTH 175 0
DWIDTH 7 0
BBX 5 17 1 1
BITMAP
F8
F8
F8
F8
F8
00
00
00
00
00
00
00
F8
F8
F8
F8
F8
ENDCHAR
STARTCHAR 003B
ENCODING 59
SWIDTH 175 0
DWIDTH 7 0
BBX 5 20 1 -3
BITMAP
F8
F8
F8
F8
F8
00
00
00
00
00
00
00
F8
F8
F8
F0
F0
F0
E0
E0
ENDCHAR
STARTCHAR 003C
ENCODING 60
SWIDTH 375 0
DWIDTH 15 0
BBX 12 18 1 4
BITMAP
0030
0070
00F0
03F0
07F0
1FC0
3F80
FE00
FC00
FC00
7F00
3F80
0FE0
07F0
01F0
00F0
0070
0010
ENDCHAR
STARTCHAR 003D
ENCODING 61
SWIDTH 475 0
DWIDTH 19 0
BBX 15 12 2 7
BITMAP
FFFE
FFFE
FFFE
FFFE
0000
0000
0000
0000
FFFE
FFFE
FFFE
FFFE
ENDCHAR
STARTCHAR 003E
ENCODING 62
SWIDTH 375 0
DWIDTH 15 0
BBX 11 18 2 4
BITMAP
8000
E000
F000
FC00
FE00
7F00
1FC0
0FE0
03E0
07E0
0FE0
3F80
7F00
FC00
F800
F000
C000
8000
ENDCHAR
STARTCHAR 003F
ENCODING 63
SWIDTH 425 0
DWIDTH 17 0
BBX 15 31 1 0
BITMAP
1FF0
7FFC
FFFE
FFFE
F83E
F83E
F83E
F83E
F83E
F83E
003C
007C
00F8
00F8
01F0
03E0
07E0
07C0
0780
0780
0780
0780
0780
0780
0000
0000
0780
0780
0780
0780
0780
ENDCHAR
STARTCHAR 0040
ENCODING 64
SWIDTH 575 0
DWIDTH 23 0
BBX 20 31 2 0
BITMAP
7FFFC0
FFFFE0
C00070
C00070
C00070
C00070
C00070
C3FC70
C7FC70
C7FC70
C71C70
C71C70
C01C70
C01C70
C3FC70
C7FC70
C7FC70
C71C70
C71C70
C71C70
C71C70
C71C70
C7FFF0
C7FFE0
C00000
C00000
C00000
C00000
C00000
FFFFF0
FFFFF0
ENDCHAR
STARTCHAR 0041
ENCODING 65
SWIDTH 450 0
DWIDTH 18 0
BBX 16 31 1 0
BITMAP
03C0
07E0
07E0
07E0
07E0
07E0
0FF0
0FF0
0FF0
0FF0
0FF0
1E78
1E78
1E78
1E78
1E78
1E7C
3C3C
3C3C
3C3C
3C3C
3FFE
7FFE
7FFE
7FFE
781E
781E
F81F
F81F
F00F
F00F
ENDCHAR
STARTCHAR 0042
ENCODING 66
SWIDTH 475 0
DWIDTH 19 0
BBX 15 31 2 0
BITMAP
FFF0
FFFC
FFFE
FFFE
F03E
F03E
F03E
F03E
F03E
F03E
F03E
F03E
F07C
FFFC
FFF0
FFF0
FFFC
F07E
F03E
F03E
F03E
F03E
F03E
F03E
F03E
F03E
F03E
FFFE
FFFE
FFFE
FFFC
ENDCHAR
STARTCHAR 0043
ENCODING 67
SWIDTH 475 0
DWIDTH 19 0
BBX 15 31 2 0
BITMAP
3FF0
FFFC
FFFE
FFFE
F03E
F03E
F03E
F03E
F03E
F03E
F000
F000
F000
F000
F000
F000
F000
F000
F000
F000
F000
F03E
F03E
F03E
F03E
F03E
F03E
FFFE
FFFE
FFFE
7FFC
ENDCHAR
STARTCHAR 0044
ENCODING 68
SWIDTH 475 0
DWIDTH 19 0
BBX 15 31 2 0
BITMAP
FFC0
FFF8
FFFC
FFFE
F07E
F03E
F03E
F03E
F03E
F03E
F03E
F03E
F03E
F03E
F03E
F03E
F03E
F03E
F03E
F03E
F03E
F03E
F03E
F03E
F03E
F03E
F03E
FFFE
FFFC
FFF8
FFF0
ENDCHAR
STARTCHAR 0045
ENCODING 69
SWIDTH 400 0
DWIDTH 16 0
BBX 13 31 2 0
BITMAP
FFF0
FFF0
FFF0
FFF0
F000
F000
F000
F000
F000
F000
F000
F000
F000
FFE0
FFE0
FFE0
FFE0
F000
F000
F000
F000
F000
F000
F000
F000
F000
F000
FFF8
FFF8
FFF8
FFF8
ENDCHAR
STARTCHAR 0046
ENCODING 70
SWIDTH 375 0
DWIDTH 15 0
BBX 12 31 2 0
BITMAP
FFF0
FFF0
FFF0
FFF0
F000
F000
F000
F000
F000
F000
F000
F000
F000
F000
FFE0
FFE0
FFE0
F000
F000
F000
F000
F000
F000
F000
F000
F000
F000
F000
F000
F000
F000
ENDCHAR
STARTCHAR 0047
ENCODING 71
SWIDTH 475 0
DWIDTH 19 0
BBX 15 31 2 0
BITMAP
3FF8
FFFE
FFFE
FFFE
F03E
F03E
F03E
F03E
F03E
F03E
F000
F000
F000
F000
F000
F1FE
F1FE
F1FE
F1FE
F03E
F03E
F03E
F03E
F03E
F03E
F03E
F03E
FFFE
FFFE
FFFE
7FFC
ENDCHAR
STARTCHAR 0048
ENCODING 72
SWIDTH 475 0
DWIDTH 19 0
BBX 15 31 2 0
BITMAP
F01E
F01E
F01E
F01E
F01E
F01E
F01E
F01E
F01E
F01E
F01E
F01E
F01E
FFFE
FFFE
FFFE
FFFE
F01E
F01E
F01E
F01E
F01E
F01E
F01E
F01E
F01E
F01E
F01E
F01E
F01E
F01E
ENDCHAR
STARTCHAR 0049
ENCODING 73
SWIDTH 200 0
DWIDTH 8 0
BBX 4 31 2 0
BITMAP
F0
F0
F0
F0
F0
F0
F0
F0
F0
F0
F0
F0
F0
F0
F0
F0
F0
F0
F0
F0
F0
F0
F0
F0
F0
F0
F0
F0
F0
F0
F0
ENDCHAR
STARTCHAR 004A
ENCODING 74
SWIDTH 425 0
DWIDTH 17 0
BBX 15 31 1 0
BITMAP
003E
003E
003E
003E
003E
003E
003E
003E
003E
003E
003E
003E
003E
003E
003E
003E
003E
003E
003E
003E
003E
F83E
F83E
F83E
F83E
F83E
F83E
FFFE
FFFE
7FFC
7FFC
ENDCHAR
STARTCHAR 004B
ENCODING 75
SWIDTH 425 0
DWIDTH 17 0
BBX 15 31 2 0
BITMAP
F07C
F07C
F07C
F0F8
F0F8
F1F0
F1F0
F1F0
F3E0
F3E0
F3C0
F7C0
F780
FF80
FF80
FF00
FF80
FF80
F7C0
F7C0
F3E0
F3E0
F1F0
F1F0
F1F0
F0F8
F0F8
F07C
F07C
F03E
F03E
ENDCHAR
STARTCHAR 004C
ENCODING 76
SWIDTH 375 0
DWIDTH 15 0
BBX 12 31 2 0
BITMAP
F000
F000
F000
F000
F000
F000
F000
F000
F000
F000
F000
F000
F000
F000
F000
F000
F000
F000
F000
F000
F000
F000
F000
F000
F000
F000
F000
FFF0
FFF0
FFF0
FFF0
ENDCHAR
STARTCHAR 004D
ENCODING 77
SWIDTH 550 0
DWIDTH 22 0
BBX 18 31 2 0
BITMAP
F003C0
F003C0
F807C0
F807C0
F807C0
FC07C0
FC0FC0
FC0FC0
FC0FC0
FE1FC0
FE1FC0
FE1FC0
FF1FC0
FF3FC0
FF3FC0
F73BC0
F7FBC0
F7FBC0
F7FBC0
F3F3C0
F3F3C0
F3F3C0
F3F3C0
F1E3C0
F1E3C0
F1E3C0
F1E3C0
F0C3C0
F003C0
F003C0
F003C0
ENDCHAR
STARTCHAR 004E
ENCODING 78
SWIDTH 475 0
DWIDTH 19 0
BBX 15 31 2 0
BITMAP
F01E
F01E
F81E
F81E
F81E
FC1E
FC1E
FE1E
FE1E
FE1E
FF1E
FF1E
FF9E
F79E
F79E
F7DE
F3DE
F3DE
F1FE
F1FE
F1FE
F0FE
F0FE
F0FE
F07E
F07E
F03E
F03E
F03E
F01E
F01E
ENDCHAR
STARTCHAR 004F
ENCODING 79
SWIDTH 475 0
DWIDTH 19 0
BBX 15 31 2 0
BITMAP
3FF8
FFFE
FFFE
FFFE
F01E
F01E
F01E
F01E
F01E
F01E
F01E
F01E
F01E
F01E
F01E
F01E
F01E
F01E
F01E
F01E
F01E
F01E
F01E
F01E
F01E
F01E
F01E
FFFE
FFFE
FFFE
7FFC
ENDCHAR
STARTCHAR 0050
ENCODING 80
SWIDTH 450 0
DWIDTH 18 0
BBX 15 31 2 0
BITMAP
FFF0
FFFC
FFFE
FFFE
F03E
F03E
F03E
F03E
F03E
F03E
F03E
F03E
F03E
F03E
F03E
F03E
FFFE
FFFE
FFFC
FFF8
F000
F000
F000
F000
F000
F000
F000
F000
F000
F000
F000
ENDCHAR
STARTCHAR 0051
ENCODING 81
SWIDTH 500 0
DWIDTH 20 0
BBX 17 31 2 0V
BITMAP
3FF800
FFFE00
FFFE00
FFFE00
F01E00
F01E00
F01E00
F01E00
F01E00
F01E00
F01E00
F01E00
F01E00
F01E00
F01E00
F01E00
F01E00
F01E00
F01E00
F01E00
F09E00
F0FE00
F0FE00
F0FE00
F07E00
F03E00
F01F80
FFFF80
FFFF80
FFFF80
7FFC80
ENDCHAR
STARTCHAR 0052
ENCODING 82
SWIDTH 450 0
DWIDTH 18 0
BBX 15 31 2 0
BITMAP
FFF0
FFFC
FFFE
FFFE
F03E
F03E
F03E
F03E
F03E
F03E
F03E
F03E
F03E
F03E
F3FE
F3FE
F3FC
F3E0
F3E0
F1E0
F1F0
F1F0
F0F0
F0F8
F0F8
F07C
F07C
F07C
F03E
F03E
F01E
ENDCHAR
STARTCHAR 0053
ENCODING 83
SWIDTH 450 0
DWIDTH 18 0
BBX 14 31 2 0
BITMAP
3FF0
FFFC
FFFC
FFFC
F03C
F03C
F03C
F03C
F03C
F03C
F800
FC00
7E00
3F00
1F80
0FC0
07E0
03F8
01FC
00FC
007C
F03C
F03C
F03C
F03C
F03C
F03C
FFFC
FFFC
FFFC
7FF8
ENDCHAR
STARTCHAR 0054
ENCODING 84
SWIDTH 400 0
DWIDTH 16 0
BBX 14 31 1 0
BITMAP
FFFC
FFFC
FFFC
FFFC
0780
0780
0780
0780
0780
0780
0780
0780
0780
0780
0780
0780
0780
0780
0780
0780
0780
0780
0780
0780
0780
0780
0780
0780
0780
0780
0780
ENDCHAR
STARTCHAR 0055
ENCODING 85
SWIDTH 475 0
DWIDTH 19 0
BBX 15 31 2 0
BITMAP
F01E
F01E
F01E
F01E
F01E
F01E
F01E
F01E
F01E
F01E
F01E
F01E
F01E
F01E
F01E
F01E
F01E
F01E
F01E
F01E
F01E
F01E
F01E
F01E
F01E
F01E
F01E
FFFE
FFFE
FFFE
7FFC
ENDCHAR
STARTCHAR 0056
ENCODING 86
SWIDTH 450 0
DWIDTH 18 0
BBX 16 31 1 0
BITMAP
F01F
F81F
F81F
F81E
781E
781E
783E
7C3E
7C3E
7C3C
3C3C
3C3C
3C3C
3E7C
3E78
1E78
1E78
1E78
1E78
1FF0
0FF0
0FF0
0FF0
0FF0
0FE0
07E0
07E0
07E0
07E0
07C0
03C0
ENDCHAR
STARTCHAR 0057
ENCODING 87
SWIDTH 625 0
DWIDTH 25 0
BBX 23 31 1 0
BITMAP
F0381E
F83C1E
F87C3E
F87C3E
F87C3E
F87C3E
787C3E
787C3C
787E3C
7CFE3C
7CFE7C
7CFE7C
7CEE7C
3CEE78
3CEF78
3DEF78
3DEF78
3FEF78
3FEFF8
1FC7F8
1FC7F0
1FC7F0
1FC7F0
1FC7F0
1FC7F0
1FC3F0
0F83F0
0F83E0
0F83E0
0F83E0
0F83E0
ENDCHAR
STARTCHAR 0058
ENCODING 88
SWIDTH 450 0
DWIDTH 18 0
BBX 16 31 1 0
BITMAP
F81F
F81E
783E
7C3E
7C3C
3C7C
3E7C
3E78
1EF8
1FF0
1FF0
0FF0
0FE0
07E0
07E0
07C0
07E0
0FE0
0FF0
0FF0
1FF0
1EF8
1EF8
3E78
3C7C
7C7C
7C3E
783E
F83E
F81F
F81F
ENDCHAR
STARTCHAR 0059
ENCODING 89
SWIDTH 450 0
DWIDTH 18 0
BBX 16 31 1 0
BITMAP
F01F
F81F
F81F
F81E
783E
7C3E
7C3C
3C3C
3C7C
3E78
1E78
1EF8
1FF0
0FF0
0FF0
0FE0
07E0
07E0
07E0
07C0
03C0
03C0
03C0
03C0
03C0
03C0
03C0
03C0
03C0
03C0
03C0
ENDCHAR
STARTCHAR 005A
ENCODING 90
SWIDTH 400 0
DWIDTH 16 0
BBX 14 31 1 0
BITMAP
FFFC
FFFC
FFFC
FFFC
FFF8
00F8
00F8
01F0
01F0
01E0
03E0
03E0
07C0
07C0
07C0
0F80
0F80
0F80
1F00
1F00
1F00
3E00
3E00
3C00
7C00
7C00
7800
FFFC
FFFC
FFFC
FFFC
ENDCHAR
STARTCHAR 005B
ENCODING 91
SWIDTH 300 0
DWIDTH 12 0
BBX 8 36 2 -5
BITMAP
3F
FF
FF
FF
FF
F0
F0
F0
F0
F0
F0
F0
F0
F0
F0
F0
F0
F0
F0
F0
F0
F0
F0
F0
F0
F0
F0
F0
F0
F0
F0
F0
FF
FF
FF
7F
ENDCHAR
STARTCHAR 005C
ENCODING 92
SWIDTH 450 0
DWIDTH 18 0
BBX 16 31 1 0
BITMAP
F000
F000
F800
7800
7C00
3C00
3C00
3E00
1E00
1F00
0F00
0F00
0F80
0780
07C0
03C0
03C0
03E0
01E0
01F0
00F0
00F0
00F8
0078
007C
003C
003C
003E
001E
001F
000F
ENDCHAR
STARTCHAR 005D
ENCODING 93
SWIDTH 300 0
DWIDTH 12 0
BBX 9 36 1 -5
BITMAP
FE00
FF80
FF80
FF80
FF80
0F80
0F80
0F80
0F80
0F80
0F80
0F80
0F80
0F80
0F80
0F80
0F80
0F80
0F80
0F80
0F80
0F80
0F80
0F80
0F80
0F80
0F80
0F80
0F80
0F80
0F80
0F80
FF80
FF80
FF80
FF00
ENDCHAR
STARTCHAR 005E
ENCODING 94
SWIDTH 425 0
DWIDTH 17 0
BBX 13 11 2 19
BITMAP
0F00
0F80
1F80
1FC0
1FC0
3FE0
3DE0
78F0
78F0
F070
E078
ENDCHAR
STARTCHAR 005F
ENCODING 95
SWIDTH 400 0
DWIDTH 16 0
BBX 16 3 0 -7
BITMAP
FFFF
FFFF
FFFF
ENDCHAR
STARTCHAR 0060
ENCODING 96
SWIDTH 400 0
DWIDTH 16 0
BBX 8 5 5 22
BITMAP
FC
7C
3E
0F
07
ENDCHAR
STARTCHAR 0061
ENCODING 97
SWIDTH 400 0
DWIDTH 16 0
BBX 12 20 2 0
BITMAP
7FE0
FFF0
FFF0
FFF0
F0F0
F0F0
00F0
00F0
7FF0
FFF0
FFF0
F0F0
F0F0
F0F0
F0F0
F0F0
F3F0
FFF0
FFF0
FEF0
ENDCHAR
STARTCHAR 0062
ENCODING 98
SWIDTH 400 0
DWIDTH 16 0
BBX 13 31 2 0
BITMAP
F000
F000
F000
F000
F000
F000
F000
F000
F000
F000
F000
F0F0
FFF8
FFF8
FFF8
F0F8
F0F8
F0F8
F0F8
F0F8
F0F8
F0F8
F0F8
F0F8
F0F8
F0F8
F0F8
FFF8
FFF8
FFF0
FFE0
ENDCHAR
STARTCHAR 0063
ENCODING 99
SWIDTH 400 0
DWIDTH 16 0
BBX 12 20 2 0
BITMAP
7FE0
FFF0
FFF0
FFF0
F0F0
F0F0
F0F0
F000
F000
F000
F000
F000
F000
F0F0
F0F0
F0F0
FFF0
FFF0
FFF0
FFF0
ENDCHAR
STARTCHAR 0064
ENCODING 100
SWIDTH 400 0
DWIDTH 16 0
BBX 13 31 2 0
BITMAP
00F8
00F8
00F8
00F8
00F8
00F8
00F8
00F8
00F8
00F8
00F8
3FF8
7FF8
FFF8
FFF8
F0F8
F0F8
F0F8
F0F8
F0F8
F0F8
F0F8
F0F8
F0F8
F0F8
F0F8
F0F8
FFF8
FFF8
FFF8
7EF8
ENDCHAR
STARTCHAR 0065
ENCODING 101
SWIDTH 400 0
DWIDTH 16 0
BBX 12 20 2 0
BITMAP
7FE0
FFF0
FFF0
FFF0
F0F0
F0F0
F0F0
F0F0
FFF0
FFF0
FFF0
F000
F000
F0F0
F0F0
F0F0
F0F0
FFF0
FFF0
FFF0
ENDCHAR
STARTCHAR 0066
ENCODING 102
SWIDTH 250 0
DWIDTH 10 0
BBX 9 31 1 0
BITMAP
0F80
3F80
3F80
3F80
3C00
3C00
3C00
3C00
3C00
3C00
3C00
FF80
FF80
FF80
FF80
3C00
3C00
3C00
3C00
3C00
3C00
3C00
3C00
3C00
3C00
3C00
3C00
3C00
3C00
3C00
3C00
ENDCHAR
STARTCHAR 0067
ENCODING 103
SWIDTH 400 0
DWIDTH 16 0
BBX 13 27 2 -7
BITMAP
3CF8
FFF8
FFF8
FFF8
F0F8
F0F8
F0F8
F0F8
F0F8
F0F8
F0F8
F0F8
F0F8
F0F8
F0F8
F0F8
FFF8
FFF8
FFF8
3FF8
00F8
00F8
F0F8
F0F8
FFF8
FFF8
FFF0
ENDCHAR
STARTCHAR 0068
ENCODING 104
SWIDTH 400 0
DWIDTH 16 0
BBX 13 31 2 0
BITMAP
F000
F000
F000
F000
F000
F000
F000
F000
F000
F000
F000
F0F0
FFF8
FFF8
FFF8
F0F8
F0F8
F0F8
F0F8
F0F8
F0F8
F0F8
F0F8
F0F8
F0F8
F0F8
F0F8
F0F8
F0F8
F0F8
F0F8
ENDCHAR
STARTCHAR 0069
ENCODING 105
SWIDTH 200 0
DWIDTH 8 0
BBX 4 27 2 0
BITMAP
F0
F0
F0
F0
00
00
00
F0
F0
F0
F0
F0
F0
F0
F0
F0
F0
F0
F0
F0
F0
F0
F0
F0
F0
F0
F0
ENDCHAR
STARTCHAR 006A
ENCODING 106
SWIDTH 200 0
DWIDTH 8 0
BBX 7 34 -1 -7
BITMAP
1E
1E
1E
1E
00
00
00
1E
1E
1E
1E
1E
1E
1E
1E
1E
1E
1E
1E
1E
1E
1E
1E
1E
1E
1E
1E
1E
1E
1E
FE
FE
FE
FE
ENDCHAR
STARTCHAR 006B
ENCODING 107
SWIDTH 375 0
DWIDTH 15 0
BBX 13 31 2 0
BITMAP
F000
F000
F000
F000
F000
F000
F000
F000
F000
F000
F000
F1F0
F1F0
F1E0
F3E0
F3C0
F7C0
F780
FF80
FF00
FF00
FF00
FF80
F780
F7C0
F3C0
F3E0
F3E0
F1F0
F1F0
F0F8
ENDCHAR
STARTCHAR 006C
ENCODING 108
SWIDTH 200 0
DWIDTH 8 0
BBX 4 31 2 0
BITMAP
F0
F0
F0
F0
F0
F0
F0
F0
F0
F0
F0
F0
F0
F0
F0
F0
F0
F0
F0
F0
F0
F0
F0
F0
F0
F0
F0
F0
F0
F0
F0
ENDCHAR
STARTCHAR 006D
ENCODING 109
SWIDTH 625 0
DWIDTH 25 0
BBX 21 20 2 0
BITMAP
F0F0F0
FFFFF8
FFFFF8
FFFFF8
F0F878
F0F878
F0F878
F0F878
F0F878
F0F878
F0F878
F0F878
F0F878
F0F878
F0F878
F0F878
F0F878
F0F878
F0F878
F0F878
ENDCHAR
STARTCHAR 006E
ENCODING 110
SWIDTH 400 0
DWIDTH 16 0
BBX 13 20 2 0
BITMAP
F0F0
FFF8
FFF8
FFF8
F0F8
F0F8
F0F8
F0F8
F0F8
F0F8
F0F8
F0F8
F0F8
F0F8
F0F8
F0F8
F0F8
F0F8
F0F8
F0F8
ENDCHAR
STARTCHAR 006F
ENCODING 111
SWIDTH 400 0
DWIDTH 16 0
BBX 13 20 2 0
BITMAP
7FE0
FFF0
FFF8
FFF8
F0F8
F0F8
F0F8
F0F8
F0F8
F0F8
F0F8
F0F8
F0F8
F0F8
F0F8
F0F8
FFF8
FFF8
FFF0
FFF0
ENDCHAR
STARTCHAR 0070
ENCODING 112
SWIDTH 400 0
DWIDTH 16 0
BBX 13 27 2 -7
BITMAP
F0F0
FFF8
FFF8
FFF8
F0F8
F0F8
F0F8
F0F8
F0F8
F0F8
F0F8
F0F8
F0F8
F0F8
F0F8
F0F8
FFF8
FFF8
FFF0
FFE0
F000
F000
F000
F000
F000
F000
F000
ENDCHAR
STARTCHAR 0071
ENCODING 113
SWIDTH 400 0
DWIDTH 16 0
BBX 13 27 2 -7
BITMAP
3CF8
FFF8
FFF8
FFF8
F0F8
F0F8
F0F8
F0F8
F0F8
F0F8
F0F8
F0F8
F0F8
F0F8
F0F8
F0F8
FFF8
FFF8
FFF8
7FF8
00F8
00F8
00F8
00F8
00F8
00F8
00F8
ENDCHAR
STARTCHAR 0072
ENCODING 114
SWIDTH 375 0
DWIDTH 15 0
BBX 12 20 2 0
BITMAP
F1E0
FFF0
FFF0
FFF0
F0F0
F0F0
F0F0
F0F0
F0F0
F000
F000
F000
F000
F000
F000
F000
F000
F000
F000
F000
ENDCHAR
STARTCHAR 0073
ENCODING 115
SWIDTH 400 0
DWIDTH 16 0
BBX 12 20 2 0
BITMAP
7FE0
FFF0
FFF0
FFF0
F0F0
F0F0
F0F0
FC00
FE00
7F80
1FE0
0FF0
03F0
F0F0
F0F0
F0F0
F0F0
FFF0
FFF0
FFE0
ENDCHAR
STARTCHAR 0074
ENCODING 116
SWIDTH 275 0
DWIDTH 11 0
BBX 9 25 1 0
BITMAP
3C00
3C00
3C00
3C00
3C00
FF80
FF80
FF80
FF80
3C00
3C00
3C00
3C00
3C00
3C00
3C00
3C00
3C00
3C00
3C00
3C00
3F80
3F80
3F80
3F80
ENDCHAR
STARTCHAR 0075
ENCODING 117
SWIDTH 400 0
DWIDTH 16 0
BBX 13 20 2 0
BITMAP
F0F8
F0F8
F0F8
F0F8
F0F8
F0F8
F0F8
F0F8
F0F8
F0F8
F0F8
F0F8
F0F8
F0F8
F0F8
F0F8
FFF8
FFF8
FFF8
FEF8
ENDCHAR
STARTCHAR 0076
ENCODING 118
SWIDTH 400 0
DWIDTH 16 0
BBX 14 20 1 0
BITMAP
F07C
F07C
F878
F878
7878
78F8
78F0
7CF0
3CF0
3CF0
3DE0
3DE0
1FE0
1FE0
1FC0
1FC0
0FC0
0FC0
0F80
0F80
ENDCHAR
STARTCHAR 0077
ENCODING 119
SWIDTH 550 0
DWIDTH 22 0
BBX 20 20 1 0
BITMAP
F0F0F0
F0F0F0
F0F1F0
F0F1E0
F9F1E0
79F1E0
79F9E0
79F9E0
79FBC0
39FBC0
3FFBC0
3FBBC0
3FBF80
3F9F80
1F9F80
1F9F80
1F1F80
1F1F00
1F0F00
0F0F00
ENDCHAR
STARTCHAR 0078
ENCODING 120
SWIDTH 375 0
DWIDTH 15 0
BBX 14 20 1 0
BITMAP
F878
F8F8
78F0
7CF0
3DE0
3DE0
1FE0
1FC0
0FC0
0F80
0F80
1FC0
1FC0
3FE0
3DE0
3DF0
7CF0
78F8
F8F8
F07C
ENDCHAR
STARTCHAR 0079
ENCODING 121
SWIDTH 400 0
DWIDTH 16 0
BBX 14 27 1 -7
BITMAP
F07C
F07C
F878
F878
7878
78F8
78F0
7CF0
3CF0
3CF0
3DE0
3DE0
1FE0
1FE0
1FC0
1FC0
0FC0
0FC0
0F80
0F80
0F80
0F80
0F00
0F00
1F00
1F00
1E00
ENDCHAR
STARTCHAR 007A
ENCODING 122
SWIDTH 350 0
DWIDTH 14 0
BBX 12 20 1 0
BITMAP
FFF0
FFF0
FFF0
FFE0
03E0
03C0
07C0
07C0
0F80
0F80
1F00
1F00
3E00
3E00
7C00
7C00
FFF0
FFF0
FFF0
FFF0
ENDCHAR
STARTCHAR 007B
ENCODING 123
SWIDTH 375 0
DWIDTH 15 0
BBX 12 36 1 -5
BITMAP
00F0
07F0
0FF0
0FF0
0FC0
0F00
0F00
0F00
0F00
0F00
0F00
0F00
0F00
0F00
1F00
3E00
7C00
F800
7C00
3E00
1F00
0F00
0F00
0F00
0F00
0F00
0F00
0F00
0F00
0F00
0F00
0F80
0FF0
0FF0
07F0
03F0
ENDCHAR
STARTCHAR 007C
ENCODING 124
SWIDTH 200 0
DWIDTH 8 0
BBX 4 38 2 -8
BITMAP
F0
F0
F0
F0
F0
F0
F0
F0
F0
F0
F0
F0
F0
F0
F0
F0
F0
F0
F0
F0
F0
F0
F0
F0
F0
F0
F0
F0
F0
F0
F0
F0
F0
F0
F0
F0
F0
F0
ENDCHAR
STARTCHAR 007D
ENCODING 125
SWIDTH 375 0
DWIDTH 15 0
BBX 13 36 1 -5
BITMAP
F800
FF00
FF00
FF80
1F80
0F80
0F80
0F80
0F80
0F80
0F80
0F80
0F80
0F80
07C0
07E0
01F0
00F8
01F0
07E0
07C0
0F80
0F80
0F80
0F80
0F80
0F80
0F80
0F80
0F80
0F80
0F80
FF80
FF00
FF00
FC00
ENDCHAR
STARTCHAR 007E
ENCODING 126
SWIDTH 500 0
DWIDTH 20 0
BBX 15 8 3 8
BITMAP
6000
FC1E
FF1E
FFFE
FFFE
E3FE
E0FE
E01C
ENDCHAR
STARTCHAR 00A0
ENCODING 160
SWIDTH 100 0
DWIDTH 4 0
BBX 0 0 0 0
BITMAP
ENDCHAR
STARTCHAR 00A1
ENCODING 161
SWIDTH 225 0
DWIDTH 9 0
BBX 5 31 2 0
BITMAP
F8
F8
F8
F8
F8
00
00
00
F0
F0
F0
F0
F0
F0
F0
F0
F0
F0
F0
F0
F0
F0
F8
F8
F8
F8
F8
F8
F8
F8
F8
ENDCHAR
STARTCHAR 00A2
ENCODING 162
SWIDTH 400 0
DWIDTH 16 0
BBX 12 31 2 0
BITMAP
0F00
0F00
0F00
0F00
0F00
0F00
FFF0
FFF0
FFF0
FFF0
F0F0
F0F0
F0F0
F000
F000
F000
F000
F000
F0F0
F0F0
F0F0
F0F0
FFF0
FFF0
FFF0
0F00
0F00
0F00
0F00
0F00
0F00
ENDCHAR
STARTCHAR 00A3
ENCODING 163
SWIDTH 450 0
DWIDTH 18 0
BBX 16 31 1 0
BITMAP
0FFC
3FFE
3FFF
3FFF
3C1F
3C1F
3C1F
3C1F
3C1F
3C1F
3C00
3C00
3C00
3C00
FFF0
FFF0
FFF0
FFF0
3C00
3C00
3C00
3C00
3C00
3C00
3C00
3C00
3C00
FFFF
FFFF
FFFF
FFFF
ENDCHAR
STARTCHAR 00A4
ENCODING 164
SWIDTH 475 0
DWIDTH 19 0
BBX 17 31 0 0
BITMAP
07FE00
1FFF80
3FFF80
3FFF80
3E0780
3E0780
3E0780
3E0780
3E0780
3E0780
3E0000
3E0000
FFF800
FFF800
3E0000
3E0000
FFF800
FFF800
FFF800
3E0000
3E0000
3E0780
3E0780
3E0780
3E0780
3E0780
3E0780
3FFF80
3FFF80
3FFF80
1FFF00
ENDCHAR
STARTCHAR 00A5
ENCODING 165
SWIDTH 450 0
DWIDTH 18 0
BBX 16 31 1 0
BITMAP
F01F
F81F
F81F
F81E
783E
7C3E
7C3C
3C3C
3C7C
3E78
1E78
1EF8
FFFF
FFFF
FFFF
0FE0
07E0
07E0
FFFF
FFFF
FFFF
FFFF
03C0
03C0
03C0
03C0
03C0
03C0
03C0
03C0
03C0
ENDCHAR
STARTCHAR 00A6
ENCODING 166
SWIDTH 475 0
DWIDTH 19 0
BBX 15 31 2 0
BITMAP
3FF8
FFFE
FFFE
FFFE
E01E
E01E
E01E
E01E
FFFE
FFFE
E01E
E01E
E01E
E01E
FFFE
FFFE
FFFE
E01E
E01E
E01E
E01E
FFFE
FFFE
FFFE
E01E
E01E
E01E
E01E
FFFE
FFFE
7FFC
ENDCHAR
STARTCHAR 00A7
ENCODING 167
SWIDTH 450 0
DWIDTH 18 0
BBX 14 31 2 0
BITMAP
3FF0
FFFC
FFFC
FFFC
F03C
F03C
F03C
F03C
FC00
FF80
7FE0
1FF8
7FFC
F87C
F03C
F03C
F03C
F03C
FCFC
FFF0
3FF0
0FF8
03FC
007C
F03C
F03C
F03C
F03C
FFFC
FFFC
7FF8
ENDCHAR
STARTCHAR 00A8
ENCODING 168
SWIDTH 400 0
DWIDTH 16 0
BBX 10 4 3 22
BITMAP
F3C0
F3C0
F3C0
F3C0
ENDCHAR
STARTCHAR 00A9
ENCODING 169
SWIDTH 575 0
DWIDTH 23 0
BBX 20 31 2 0
BITMAP
7FFFC0
FFFFE0
C00070
C00070
C00070
C00070
C00070
C3FC70
C7FC70
C7FC70
C71C70
C71C70
C71C70
C70070
C70070
C70070
C70070
C70070
C71C70
C71C70
C71C70
C7FC70
C7FC70
C7FC70
C00070
C00070
C00070
C00070
C00070
FFFFE0
FFFFE0
ENDCHAR
STARTCHAR 00AA
ENCODING 170
SWIDTH 350 0
DWIDTH 14 0
BBX 10 21 2 10
BITMAP
3F00
FFC0
FFC0
E1C0
E1C0
01C0
01C0
FFC0
FFC0
E1C0
E1C0
E1C0
E1C0
FFC0
FFC0
FFC0
0000
0000
FFC0
FFC0
FFC0
ENDCHAR
STARTCHAR 00AB
ENCODING 171
SWIDTH 500 0
DWIDTH 20 0
BBX 18 16 1 3
BITMAP
07C7C0
0F8F80
0F9F00
1F1F00
3E3E00
3E7C00
7C7C00
FCF800
F8F800
7CF800
3E7C00
3E3E00
1F3E00
0F9F00
0F8F80
07CF80
ENDCHAR
STARTCHAR 00AC
ENCODING 172
SWIDTH 475 0
DWIDTH 19 0
BBX 15 31 2 0
BITMAP
3FF8
FFFE
FFFE
FFFE
E01E
E01E
E01E
E01E
FFFE
FFFE
E01E
E01E
E01E
E01E
FFFE
FFFE
FFFE
E01E
E01E
E01E
E01E
FFFE
FFFE
FFFE
E01E
E01E
E01E
E01E
FFFE
FFFE
7FFC
ENDCHAR
STARTCHAR 00AD
ENCODING 173
SWIDTH 300 0
DWIDTH 12 0
BBX 10 4 1 9
BITMAP
FFC0
FFC0
FFC0
FFC0
ENDCHAR
STARTCHAR 00AE
ENCODING 174
SWIDTH 575 0
DWIDTH 23 0
BBX 20 31 2 0
BITMAP
7FFFC0
FFFFE0
C00070
C00070
C00070
C00070
C00070
C7FC70
C7FC70
C7FC70
C71C70
C71C70
C71C70
C71C70
C71C70
C77C70
C77C70
C77070
C77870
C73870
C73870
C71C70
C71C70
C71E70
C00070
C00070
C00070
C00070
C00070
FFFFE0
FFFFE0
ENDCHAR
STARTCHAR 00AF
ENCODING 175
SWIDTH 400 0
DWIDTH 16 0
BBX 10 3 3 22
BITMAP
FFC0
FFC0
FFC0
ENDCHAR
STARTCHAR 00B0
ENCODING 176
SWIDTH 325 0
DWIDTH 13 0
BBX 10 13 1 17
BITMAP
3F00
7FC0
7FC0
E1C0
E1C0
E1C0
E1C0
E1C0
E1C0
E1C0
E1C0
FFC0
7FC0
ENDCHAR
STARTCHAR 00B1
ENCODING 177
SWIDTH 675 0
DWIDTH 27 0
BBX 25 31 1 0
BITMAP
0F87FF80
3F9FFF80
3F9FFF80
3F9FFF80
3C1E0F80
3C1E0F80
3C1E0F80
3C1E0F80
3C1E0F80
3C1E0F80
3C1E0F80
FFFFCF80
FFFFCF80
FFFFCF80
FFFFCF80
3C1E0F80
3C1E0F80
3C1E0F80
3C1E0F80
3C1E0F80
3C1E0F80
3C1E0F80
3C1E0F80
3C1E0F80
3C1E0F80
3C1E0F80
3C1E0F80
3C1E0F80
3C1E0F80
3C1E0F80
3C1E0F80
ENDCHAR
STARTCHAR 00B2
ENCODING 178
SWIDTH 475 0
DWIDTH 19 0
BBX 15 31 2 0
BITMAP
3FF8
FFFE
FFFE
FFFE
E01E
E01E
E01E
E01E
FFFE
FFFE
E01E
E01E
E01E
E01E
FFFE
FFFE
FFFE
E01E
E01E
E01E
E01E
FFFE
FFFE
FFFE
E01E
E01E
E01E
E01E
FFFE
FFFE
7FFC
ENDCHAR
STARTCHAR 00B3
ENCODING 179
SWIDTH 475 0
DWIDTH 19 0
BBX 15 31 2 0
BITMAP
3FF8
FFFE
FFFE
FFFE
E01E
E01E
E01E
E01E
FFFE
FFFE
E01E
E01E
E01E
E01E
FFFE
FFFE
FFFE
E01E
E01E
E01E
E01E
FFFE
FFFE
FFFE
E01E
E01E
E01E
E01E
FFFE
FFFE
7FFC
ENDCHAR
STARTCHAR 00B4
ENCODING 180
SWIDTH 400 0
DWIDTH 16 0
BBX 8 5 3 22
BITMAP
1F
3E
7C
78
F0
ENDCHAR
STARTCHAR 00B5
ENCODING 181
SWIDTH 625 0
DWIDTH 25 0
BBX 21 31 2 0
BITMAP
F00078
F800F8
FC01F8
FE01F8
FF03F8
FF07F8
FF8FF8
FFDFF8
F7FF78
F3FE78
F1FE78
F0FC78
F0F878
F0F878
F0F878
F0F878
F0F878
F0F878
F0F878
F0F878
F0F878
F0F878
F0F878
F0F878
F0F878
F0F878
F0F878
F0F878
F0F878
F0F878
F0F878
ENDCHAR
STARTCHAR 00B6
ENCODING 182
SWIDTH 500 0
DWIDTH 20 0
BBX 16 31 2 0
BITMAP
3FFF
FFFF
FFFF
FFFF
FE0F
FE0F
FE0F
FE0F
FE0F
FE0F
FE0F
FE0F
FE0F
FE0F
FE0F
FE0F
FFFF
FFFF
FFFF
FFFF
03CF
03CF
03CF
03CF
03CF
03CF
03CF
03CF
03CF
03CF
03CF
ENDCHAR
STARTCHAR 00B7
ENCODING 183
SWIDTH 200 0
DWIDTH 8 0
BBX 5 5 1 10
BITMAP
F8
F8
F8
F8
F8
ENDCHAR
STARTCHAR 00B8
ENCODING 184
SWIDTH 400 0
DWIDTH 16 0
BBX 8 8 4 -7
BITMAP
1C
1E
1F
07
E7
FF
FF
7E
ENDCHAR
STARTCHAR 00B9
ENCODING 185
SWIDTH 475 0
DWIDTH 19 0
BBX 15 31 2 0
BITMAP
3FF8
FFFE
FFFE
FFFE
E01E
E01E
E01E
E01E
FFFE
FFFE
E01E
E01E
E01E
E01E
FFFE
FFFE
FFFE
E01E
E01E
E01E
E01E
FFFE
FFFE
FFFE
E01E
E01E
E01E
E01E
FFFE
FFFE
7FFC
ENDCHAR
STARTCHAR 00BA
ENCODING 186
SWIDTH 350 0
DWIDTH 14 0
BBX 10 21 2 10
BITMAP
3F00
FFC0
FFC0
E1C0
E1C0
E1C0
E1C0
E1C0
E1C0
E1C0
E1C0
E1C0
E1C0
FFC0
FFC0
FFC0
0000
0000
FFC0
FFC0
FFC0
ENDCHAR
STARTCHAR 00BB
ENCODING 187
SWIDTH 500 0
DWIDTH 20 0
BBX 17 16 2 3
BITMAP
F9F000
F8F800
7CF800
3E7C00
3E3E00
1F3E00
0F9F00
0F8F80
0F8F80
0F9F00
1F1F00
3E3E00
3E7C00
7C7C00
F8F800
F9F000
ENDCHAR
STARTCHAR 00BC
ENCODING 188
SWIDTH 475 0
DWIDTH 19 0
BBX 15 31 2 0
BITMAP
3FF8
FFFE
FFFE
FFFE
E01E
E01E
E01E
E01E
FFFE
FFFE
E01E
E01E
E01E
E01E
FFFE
FFFE
FFFE
E01E
E01E
E01E
E01E
FFFE
FFFE
FFFE
E01E
E01E
E01E
E01E
FFFE
FFFE
7FFC
ENDCHAR
STARTCHAR 00BD
ENCODING 189
SWIDTH 475 0
DWIDTH 19 0
BBX 15 31 2 0
BITMAP
3FF8
FFFE
FFFE
FFFE
E01E
E01E
E01E
E01E
FFFE
FFFE
E01E
E01E
E01E
E01E
FFFE
FFFE
FFFE
E01E
E01E
E01E
E01E
FFFE
FFFE
FFFE
E01E
E01E
E01E
E01E
FFFE
FFFE
7FFC
ENDCHAR
STARTCHAR 00BE
ENCODING 190
SWIDTH 475 0
DWIDTH 19 0
BBX 15 31 2 0
BITMAP
3FF8
FFFE
FFFE
FFFE
E01E
E01E
E01E
E01E
FFFE
FFFE
E01E
E01E
E01E
E01E
FFFE
FFFE
FFFE
E01E
E01E
E01E
E01E
FFFE
FFFE
FFFE
E01E
E01E
E01E
E01E
FFFE
FFFE
7FFC
ENDCHAR
STARTCHAR 00BF
ENCODING 191
SWIDTH 425 0
DWIDTH 17 0
BBX 15 31 1 0
BITMAP
03C0
03C0
03C0
03C0
03C0
0000
0000
0000
03C0
03C0
03C0
03C0
03C0
03C0
07C0
0F80
1F80
1F00
3E00
7C00
7C00
F800
F83E
F83E
F83E
F83E
F83E
FFFE
FFFE
7FFC
7FFC
ENDCHAR
STARTCHAR 00C0
ENCODING 192
SWIDTH 450 0
DWIDTH 18 0
BBX 16 37 1 1
BITMAP
3F00
0F80
0780
03C0
01E0
0000
03C0
07E0
07E0
07E0
07E0
07E0
0FF0
0FF0
0FF0
0FF0
0FF0
1E78
1E78
1E78
1E78
1E78
1E7C
3C3C
3C3C
3C3C
3C3C
3FFE
7FFE
7FFE
7FFE
781E
781E
F81F
F81F
F00F
F00F
ENDCHAR
STARTCHAR 00C1
ENCODING 193
SWIDTH 450 0
DWIDTH 18 0
BBX 16 37 1 1
BITMAP
00FC
01F0
01E0
03C0
0780
0000
03C0
07E0
07E0
07E0
07E0
07E0
0FF0
0FF0
0FF0
0FF0
0FF0
1E78
1E78
1E78
1E78
1E78
1E7C
3C3C
3C3C
3C3C
3C3C
3FFE
7FFE
7FFE
7FFE
781E
781E
F81F
F81F
F00F
F00F
ENDCHAR
STARTCHAR 00C2
ENCODING 194
SWIDTH 450 0
DWIDTH 18 0
BBX 16 37 1 0
BITMAP
03C0
07E0
0FF0
0E70
1C38
0000
03C0
07E0
07E0
07E0
07E0
07E0
0FF0
0FF0
0FF0
0FF0
0FF0
1E78
1E78
1E78
1E78
1E78
1E7C
3C3C
3C3C
3C3C
3C3C
3FFE
7FFE
7FFE
7FFE
781E
781E
F81F
F81F
F00F
F00F
ENDCHAR
STARTCHAR 00C3
ENCODING 195
SWIDTH 450 0
DWIDTH 18 0
BBX 16 37 1 0
BITMAP
1E38
1FB8
1FF8
1DF8
1C78
0000
03C0
07E0
07E0
07E0
07E0
07E0
0FF0
0FF0
0FF0
0FF0
0FF0
1E78
1E78
1E78
1E78
1E78
1E7C
3C3C
3C3C
3C3C
3C3C
3FFE
7FFE
7FFE
7FFE
781E
781E
F81F
F81F
F00F
F00F
ENDCHAR
STARTCHAR 00C4
ENCODING 196
SWIDTH 450 0
DWIDTH 18 0
BBX 16 36 1 1
BITMAP
1E78
1E78
1E78
1E78
0000
03C0
07E0
07E0
07E0
07E0
07E0
0FF0
0FF0
0FF0
0FF0
0FF0
1E78
1E78
1E78
1E78
1E78
1E7C
3C3C
3C3C
3C3C
3C3C
3FFE
7FFE
7FFE
7FFE
781E
781E
F81F
F81F
F00F
F00F
ENDCHAR
STARTCHAR 00C5
ENCODING 197
SWIDTH 450 0
DWIDTH 18 0
BBX 16 36 1 1
BITMAP
0FF0
0FF0
0E70
0E70
0E70
0FF0
0FF0
07E0
07E0
07E0
07E0
0FF0
0FF0
0FF0
0FF0
0FF0
1E78
1E78
1E78
1E78
1E78
1E7C
3C3C
3C3C
3C3C
3C3C
3FFE
7FFE
7FFE
7FFE
781E
781E
F81F
F81F
F00F
F00F
ENDCHAR
STARTCHAR 00C6
ENCODING 198
SWIDTH 625 0
DWIDTH 25 0
BBX 23 31 1 0
BITMAP
00FFFE
00FFFE
00FFFE
01FFFE
01FE00
01FE00
01FE00
03FE00
03FE00
03BE00
07BE00
07BE00
07BE00
073FF8
0F3FF8
0F3FF8
0F3FF8
1E3E00
1E3E00
1E3E00
3E3E00
3FFE00
3FFE00
3FFE00
7FFE00
783E00
783E00
F83FFE
F83FFE
F03FFE
F03FFE
ENDCHAR
STARTCHAR 00C7
ENCODING 199
SWIDTH 475 0
DWIDTH 19 0
BBX 15 39 2 -8
BITMAP
3FF0
FFFC
FFFE
FFFE
F03E
F03E
F03E
F03E
F03E
F03E
F000
F000
F000
F000
F000
F000
F000
F000
F000
F000
F000
F03E
F03E
F03E
F03E
F03E
F03E
FFFE
FFFE
FFFE
7FFC
0380
03C0
03E0
00F0
1C70
1FF0
1FF0
07C0
ENDCHAR
STARTCHAR 00C8
ENCODING 200
SWIDTH 400 0
DWIDTH 16 0
BBX 13 37 2 1
BITMAP
7E00
3E00
1F00
0F80
0780
0000
FFF0
FFF0
FFF0
FFF0
F000
F000
F000
F000
F000
F000
F000
F000
F000
FFE0
FFE0
FFE0
FFE0
F000
F000
F000
F000
F000
F000
F000
F000
F000
F000
FFF8
FFF8
FFF8
FFF8
ENDCHAR
STARTCHAR 00C9
ENCODING 201
SWIDTH 400 0
DWIDTH 16 0
BBX 13 37 2 1
BITMAP
07E0
07C0
0F80
0F00
1E00
0000
FFF0
FFF0
FFF0
FFF0
F000
F000
F000
F000
F000
F000
F000
F000
F000
FFE0
FFE0
FFE0
FFE0
F000
F000
F000
F000
F000
F000
F000
F000
F000
F000
FFF8
FFF8
FFF8
FFF8
ENDCHAR
STARTCHAR 00CA
ENCODING 202
SWIDTH 400 0
DWIDTH 16 0
BBX 13 37 2 1
BITMAP
0F00
1F80
1FC0
39E0
70E0
0000
FFF0
FFF0
FFF0
FFF0
F000
F000
F000
F000
F000
F000
F000
F000
F000
FFE0
FFE0
FFE0
FFE0
F000
F000
F000
F000
F000
F000
F000
F000
F000
F000
FFF8
FFF8
FFF8
FFF8
ENDCHAR
STARTCHAR 00CB
ENCODING 203
SWIDTH 400 0
DWIDTH 16 0
BBX 13 36 2 1
BITMAP
79E0
79E0
79E0
79E0
0000
FFF0
FFF0
FFF0
FFF0
F000
F000
F000
F000
F000
F000
F000
F000
F000
FFE0
FFE0
FFE0
FFE0
F000
F000
F000
F000
F000
F000
F000
F000
F000
F000
FFF8
FFF8
FFF8
FFF8
ENDCHAR
STARTCHAR 00CC
ENCODING 204
SWIDTH 200 0
DWIDTH 8 0
BBX 8 37 -1 1
BITMAP
F8
7C
3E
1E
0F
00
1E
1E
1E
1E
1E
1E
1E
1E
1E
1E
1E
1E
1E
1E
1E
1E
1E
1E
1E
1E
1E
1E
1E
1E
1E
1E
1E
1E
1E
1E
1E
ENDCHAR
STARTCHAR 00CD
ENCODING 205
SWIDTH 200 0
DWIDTH 8 0
BBX 8 37 1 1
BITMAP
1F
3E
3C
78
F0
00
78
78
78
78
78
78
78
78
78
78
78
78
78
78
78
78
78
78
78
78
78
78
78
78
78
78
78
78
78
78
78
ENDCHAR
STARTCHAR 00CE
ENCODING 206
SWIDTH 200 0
DWIDTH 8 0
BBX 10 37 -1 1
BITMAP
1E00
3F00
3F80
73C0
E1C0
0000
1E00
1E00
1E00
1E00
1E00
1E00
1E00
1E00
1E00
1E00
1E00
1E00
1E00
1E00
1E00
1E00
1E00
1E00
1E00
1E00
1E00
1E00
1E00
1E00
1E00
1E00
1E00
1E00
1E00
1E00
1E00
ENDCHAR
STARTCHAR 00CF
ENCODING 207
SWIDTH 200 0
DWIDTH 8 0
BBX 10 36 -1 1
BITMAP
F3C0
F3C0
F3C0
F3C0
0000
1E00
1E00
1E00
1E00
1E00
1E00
1E00
1E00
1E00
1E00
1E00
1E00
1E00
1E00
1E00
1E00
1E00
1E00
1E00
1E00
1E00
1E00
1E00
1E00
1E00
1E00
1E00
1E00
1E00
1E00
1E00
ENDCHAR
STARTCHAR 00D0
ENCODING 208
SWIDTH 475 0
DWIDTH 19 0
BBX 17 31 1 0
BITMAP
7FE000
7FFC00
7FFE00
7FFF00
7C3F00
7C0F80
7C0F80
7C0F80
7C0F80
7C0F80
7C0F80
7C0F80
7C0F80
FF8F80
FF8F80
FF8F80
FF8F80
7C0F80
7C0F80
7C0F80
7C0F80
7C0F80
7C0F80
7C0F80
7C0F80
7C0F80
7C1F80
7FFF00
7FFF00
7FFE00
7FF800
ENDCHAR
STARTCHAR 00D1
ENCODING 209
SWIDTH 475 0
DWIDTH 19 0
BBX 15 37 2 0
BITMAP
1C38
3F38
3FF8
3BF8
38F0
0000
F01E
F01E
F81E
F81E
F81E
FC1E
FC1E
FE1E
FE1E
FE1E
FF1E
FF1E
FF9E
F79E
F79E
F7DE
F3DE
F3DE
F1FE
F1FE
F1FE
F0FE
F0FE
F0FE
F07E
F07E
F03E
F03E
F03E
F01E
F01E
ENDCHAR
STARTCHAR 00D2
ENCODING 210
SWIDTH 475 0
DWIDTH 19 0
BBX 15 37 2 1
BITMAP
3F00
1F00
0F80
07C0
03C0
0000
3FF8
FFFE
FFFE
FFFE
F01E
F01E
F01E
F01E
F01E
F01E
F01E
F01E
F01E
F01E
F01E
F01E
F01E
F01E
F01E
F01E
F01E
F01E
F01E
F01E
F01E
F01E
F01E
FFFE
FFFE
FFFE
7FFC
ENDCHAR
STARTCHAR 00D3
ENCODING 211
SWIDTH 475 0
DWIDTH 19 0
BBX 15 37 2 1
BITMAP
01F8
01F0
03E0
03C0
0780
0000
3FF8
FFFE
FFFE
FFFE
F01E
F01E
F01E
F01E
F01E
F01E
F01E
F01E
F01E
F01E
F01E
F01E
F01E
F01E
F01E
F01E
F01E
F01E
F01E
F01E
F01E
F01E
F01E
FFFE
FFFE
FFFE
7FFC
ENDCHAR
STARTCHAR 00D4
ENCODING 212
SWIDTH 475 0
DWIDTH 19 0
BBX 15 37 2 1
BITMAP
07C0
07C0
0FE0
1EF0
3C78
0000
3FF8
FFFE
FFFE
FFFE
F01E
F01E
F01E
F01E
F01E
F01E
F01E
F01E
F01E
F01E
F01E
F01E
F01E
F01E
F01E
F01E
F01E
F01E
F01E
F01E
F01E
F01E
F01E
FFFE
FFFE
FFFE
7FFC
ENDCHAR
STARTCHAR 00D5
ENCODING 213
SWIDTH 475 0
DWIDTH 19 0
BBX 15 37 2 0
BITMAP
1C38
3FB8
3FF8
3BF8
3870
0000
3FF8
FFFE
FFFE
FFFE
F01E
F01E
F01E
F01E
F01E
F01E
F01E
F01E
F01E
F01E
F01E
F01E
F01E
F01E
F01E
F01E
F01E
F01E
F01E
F01E
F01E
F01E
F01E
FFFE
FFFE
FFFE
7FFC
ENDCHAR
STARTCHAR 00D6
ENCODING 214
SWIDTH 475 0
DWIDTH 19 0
BBX 15 36 2 1
BITMAP
3EF8
3EF8
3EF8
3EF8
0000
3FF8
FFFE
FFFE
FFFE
F01E
F01E
F01E
F01E
F01E
F01E
F01E
F01E
F01E
F01E
F01E
F01E
F01E
F01E
F01E
F01E
F01E
F01E
F01E
F01E
F01E
F01E
F01E
FFFE
FFFE
FFFE
7FFC
ENDCHAR
STARTCHAR 00D7
ENCODING 215
SWIDTH 475 0
DWIDTH 19 0
BBX 15 31 2 0
BITMAP
3FF8
FFFE
FFFE
FFFE
E01E
E01E
E01E
E01E
FFFE
FFFE
E01E
E01E
E01E
E01E
FFFE
FFFE
FFFE
E01E
E01E
E01E
E01E
FFFE
FFFE
FFFE
E01E
E01E
E01E
E01E
FFFE
FFFE
7FFC
ENDCHAR
STARTCHAR 00D8
ENCODING 216
SWIDTH 475 0
DWIDTH 19 0
BBX 15 37 2 -3
BITMAP
003E
003E
003E
3FFC
FFFE
FFFE
FFFE
F01E
F01E
F01E
F01E
F01E
F01E
F01E
F01E
F01E
F01E
F01E
F01E
F01E
F01E
F01E
F01E
F01E
F01E
F01E
F01E
F01E
F01E
F01E
FFFE
FFFE
FFFE
7FFC
7C00
7800
F800
ENDCHAR
STARTCHAR 00D9
ENCODING 217
SWIDTH 475 0
DWIDTH 19 0
BBX 15 37 2 1
BITMAP
3F00
1F00
0F80
07C0
03C0
0000
F01E
F01E
F01E
F01E
F01E
F01E
F01E
F01E
F01E
F01E
F01E
F01E
F01E
F01E
F01E
F01E
F01E
F01E
F01E
F01E
F01E
F01E
F01E
F01E
F01E
F01E
F01E
FFFE
FFFE
FFFE
7FFC
ENDCHAR
STARTCHAR 00DA
ENCODING 218
SWIDTH 475 0
DWIDTH 19 0
BBX 15 37 2 1
BITMAP
01F8
01F0
03E0
0780
0700
0000
F01E
F01E
F01E
F01E
F01E
F01E
F01E
F01E
F01E
F01E
F01E
F01E
F01E
F01E
F01E
F01E
F01E
F01E
F01E
F01E
F01E
F01E
F01E
F01E
F01E
F01E
F01E
FFFE
FFFE
FFFE
7FFC
ENDCHAR
STARTCHAR 00DB
ENCODING 219
SWIDTH 475 0
DWIDTH 19 0
BBX 15 37 2 1
BITMAP
07C0
07C0
0FE0
1EF0
3878
0000
F01E
F01E
F01E
F01E
F01E
F01E
F01E
F01E
F01E
F01E
F01E
F01E
F01E
F01E
F01E
F01E
F01E
F01E
F01E
F01E
F01E
F01E
F01E
F01E
F01E
F01E
F01E
FFFE
FFFE
FFFE
7FFC
ENDCHAR
STARTCHAR 00DC
ENCODING 220
SWIDTH 475 0
DWIDTH 19 0
BBX 15 36 2 1
BITMAP
3EF8
3EF8
3EF8
3EF8
0000
F01E
F01E
F01E
F01E
F01E
F01E
F01E
F01E
F01E
F01E
F01E
F01E
F01E
F01E
F01E
F01E
F01E
F01E
F01E
F01E
F01E
F01E
F01E
F01E
F01E
F01E
F01E
FFFE
FFFE
FFFE
7FFC
ENDCHAR
STARTCHAR 00DD
ENCODING 221
SWIDTH 450 0
DWIDTH 18 0
BBX 16 37 1 1
BITMAP
00F8
01F0
01E0
03C0
0780
0000
F01F
F81F
F81F
F81E
783E
7C3E
7C3C
3C3C
3C7C
3E78
1E78
1EF8
1FF0
0FF0
0FF0
0FE0
07E0
07E0
07E0
07C0
03C0
03C0
03C0
03C0
03C0
03C0
03C0
03C0
03C0
03C0
03C0
ENDCHAR
STARTCHAR 00DE
ENCODING 222
SWIDTH 450 0
DWIDTH 18 0
BBX 15 31 2 0
BITMAP
F000
F000
F000
F000
F000
F000
FFFC
FFFC
FFFE
FFFE
F03E
F03E
F03E
F03E
F03E
F03E
F03E
F03E
F03E
F03E
F03E
FFFE
FFFE
FFFE
FFFC
F000
F000
F000
F000
F000
F000
ENDCHAR
STARTCHAR 00DF
ENCODING 223
SWIDTH 400 0
DWIDTH 16 0
BBX 13 31 2 0
BITMAP
FF00
FFE0
FFF0
FFF8
F0F8
F0F8
F0F8
F0F8
F0F8
F0F8
F0F8
F0F8
F0F0
F1F0
F3E0
F3E0
F3F0
F1F0
F0F8
F0F8
F0F8
F0F8
F0F8
F0F8
F0F8
F0F8
F0F8
F3F8
F3F8
F3F8
F3F0
ENDCHAR
STARTCHAR 00E0
ENCODING 224
SWIDTH 400 0
DWIDTH 16 0
BBX 12 26 2 0
BITMAP
7C00
3E00
1F00
0F00
0780
0000
7FE0
FFF0
FFF0
FFF0
F0F0
F0F0
00F0
00F0
7FF0
FFF0
FFF0
F0F0
F0F0
F0F0
F0F0
F0F0
F3F0
FFF0
FFF0
FEF0
ENDCHAR
STARTCHAR 00E1
ENCODING 225
SWIDTH 400 0
DWIDTH 16 0
BBX 12 26 2 0
BITMAP
03E0
07C0
0F80
0F00
1E00
0000
7FE0
FFF0
FFF0
FFF0
F0F0
F0F0
00F0
00F0
7FF0
FFF0
FFF0
F0F0
F0F0
F0F0
F0F0
F0F0
F3F0
FFF0
FFF0
FEF0
ENDCHAR
STARTCHAR 00E2
ENCODING 226
SWIDTH 400 0
DWIDTH 16 0
BBX 12 26 2 0
BITMAP
0F00
1F80
3FC0
39E0
70E0
0000
7FE0
FFF0
FFF0
FFF0
F0F0
F0F0
00F0
00F0
7FF0
FFF0
FFF0
F0F0
F0F0
F0F0
F0F0
F0F0
F3F0
FFF0
FFF0
FEF0
ENDCHAR
STARTCHAR 00E3
ENCODING 227
SWIDTH 400 0
DWIDTH 16 0
BBX 12 26 2 -1
BITMAP
78E0
7EE0
7FE0
77E0
71E0
0000
7FE0
FFF0
FFF0
FFF0
F0F0
F0F0
00F0
00F0
7FF0
FFF0
FFF0
F0F0
F0F0
F0F0
F0F0
F0F0
F3F0
FFF0
FFF0
FEF0
ENDCHAR
STARTCHAR 00E4
ENCODING 228
SWIDTH 400 0
DWIDTH 16 0
BBX 12 25 2 0
BITMAP
79E0
79E0
79E0
79E0
0000
7FE0
FFF0
FFF0
FFF0
F0F0
F0F0
00F0
00F0
7FF0
FFF0
FFF0
F0F0
F0F0
F0F0
F0F0
F0F0
F3F0
FFF0
FFF0
FEF0
ENDCHAR
STARTCHAR 00E5
ENCODING 229
SWIDTH 400 0
DWIDTH 16 0
BBX 12 29 2 0
BITMAP
3FC0
3FE0
38E0
38E0
38E0
3FE0
3FE0
3FC0
0000
7FE0
FFF0
FFF0
FFF0
F0F0
F0F0
00F0
00F0
7FF0
FFF0
FFF0
F0F0
F0F0
F0F0
F0F0
F0F0
F3F0
FFF0
FFF0
FEF0
ENDCHAR
STARTCHAR 00E6
ENCODING 230
SWIDTH 600 0
DWIDTH 24 0
BBX 20 20 2 -1
BITMAP
7FFFE0
FFFFF0
FFFFF0
FFFFF0
F0F0F0
F0F0F0
00F0F0
00F0F0
7FFFF0
FFFFF0
FFFFF0
F0F000
F0F000
F0F0F0
F0F0F0
F0F0F0
F1F0F0
FFFFF0
FFFFF0
FC7FE0
ENDCHAR
STARTCHAR 00E7
ENCODING 231
SWIDTH 400 0
DWIDTH 16 0
BBX 12 28 2 -8
BITMAP
7FE0
FFF0
FFF0
FFF0
F0F0
F0F0
F0F0
F000
F000
F000
F000
F000
F000
F0F0
F0F0
F0F0
FFF0
FFF0
FFF0
FFF0
0E00
0F80
07C0
01C0
39C0
3FC0
3FC0
1F80
ENDCHAR
STARTCHAR 00E8
ENCODING 232
SWIDTH 400 0
DWIDTH 16 0
BBX 12 26 2 1
BITMAP
7C00
3E00
1F00
0F00
0780
0000
7FE0
FFF0
FFF0
FFF0
F0F0
F0F0
F0F0
F0F0
FFF0
FFF0
FFF0
F000
F000
F0F0
F0F0
F0F0
F0F0
FFF0
FFF0
FFF0
ENDCHAR
STARTCHAR 00E9
ENCODING 233
SWIDTH 400 0
DWIDTH 16 0
BBX 12 26 2 1
BITMAP
03E0
07C0
0F80
0F00
1E00
0000
7FE0
FFF0
FFF0
FFF0
F0F0
F0F0
F0F0
F0F0
FFF0
FFF0
FFF0
F000
F000
F0F0
F0F0
F0F0
F0F0
FFF0
FFF0
FFF0
ENDCHAR
STARTCHAR 00EA
ENCODING 234
SWIDTH 400 0
DWIDTH 16 0
BBX 12 26 2 1
BITMAP
0F00
1F80
3FC0
79E0
70E0
0000
7FE0
FFF0
FFF0
FFF0
F0F0
F0F0
F0F0
F0F0
FFF0
FFF0
FFF0
F000
F000
F0F0
F0F0
F0F0
F0F0
FFF0
FFF0
FFF0
ENDCHAR
STARTCHAR 00EB
ENCODING 235
SWIDTH 400 0
DWIDTH 16 0
BBX 12 25 2 1
BITMAP
79E0
79E0
79E0
79E0
0000
7FE0
FFF0
FFF0
FFF0
F0F0
F0F0
F0F0
F0F0
FFF0
FFF0
FFF0
F000
F000
F0F0
F0F0
F0F0
F0F0
FFF0
FFF0
FFF0
ENDCHAR
STARTCHAR 00EC
ENCODING 236
SWIDTH 200 0
DWIDTH 8 0
BBX 8 26 -1 1
BITMAP
F8
7C
3E
1E
0F
00
1E
1E
1E
1E
1E
1E
1E
1E
1E
1E
1E
1E
1E
1E
1E
1E
1E
1E
1E
1E
ENDCHAR
STARTCHAR 00ED
ENCODING 237
SWIDTH 200 0
DWIDTH 8 0
BBX 8 26 1 1
BITMAP
1F
3E
7C
78
F0
00
78
78
78
78
78
78
78
78
78
78
78
78
78
78
78
78
78
78
78
78
ENDCHAR
STARTCHAR 00EE
ENCODING 238
SWIDTH 200 0
DWIDTH 8 0
BBX 10 26 -1 1
BITMAP
1E00
3F00
7F80
F380
E1C0
0000
1E00
1E00
1E00
1E00
1E00
1E00
1E00
1E00
1E00
1E00
1E00
1E00
1E00
1E00
1E00
1E00
1E00
1E00
1E00
1E00
ENDCHAR
STARTCHAR 00EF
ENCODING 239
SWIDTH 200 0
DWIDTH 8 0
BBX 10 25 -1 1
BITMAP
F3C0
F3C0
F3C0
F3C0
0000
1E00
1E00
1E00
1E00
1E00
1E00
1E00
1E00
1E00
1E00
1E00
1E00
1E00
1E00
1E00
1E00
1E00
1E00
1E00
1E00
ENDCHAR
STARTCHAR 00F0
ENCODING 240
SWIDTH 400 0
DWIDTH 16 0
BBX 15 31 2 0
BITMAP
3FE0
FFF0
FFF8
FFF8
F0FE
F0FE
F1FE
01FE
01F8
01F8
00F8
7FF8
FFF8
FFF8
FFF8
F0F8
F0F8
F0F8
F0F8
F0F8
F0F8
F0F8
F0F8
F0F8
F0F8
F0F8
F0F8
FFF8
FFF8
FFF8
FFF0
ENDCHAR
STARTCHAR 00F1
ENCODING 241
SWIDTH 400 0
DWIDTH 16 0
BBX 13 26 2 0
BITMAP
38E0
7EE0
7FE0
77E0
71E0
0000
F0F0
FFF8
FFF8
FFF8
F0F8
F0F8
F0F8
F0F8
F0F8
F0F8
F0F8
F0F8
F0F8
F0F8
F0F8
F0F8
F0F8
F0F8
F0F8
F0F8
ENDCHAR
STARTCHAR 00F2
ENCODING 242
SWIDTH 400 0
DWIDTH 16 0
BBX 13 26 2 1
BITMAP
7C00
3E00
1F00
0F00
0780
0000
7FE0
FFF0
FFF8
FFF8
F0F8
F0F8
F0F8
F0F8
F0F8
F0F8
F0F8
F0F8
F0F8
F0F8
F0F8
F0F8
FFF8
FFF8
FFF0
FFF0
ENDCHAR
STARTCHAR 00F3
ENCODING 243
SWIDTH 400 0
DWIDTH 16 0
BBX 13 26 2 1
BITMAP
03E0
07C0
0F80
0F00
1E00
0000
7FE0
FFF0
FFF8
FFF8
F0F8
F0F8
F0F8
F0F8
F0F8
F0F8
F0F8
F0F8
F0F8
F0F8
F0F8
F0F8
FFF8
FFF8
FFF0
FFF0
ENDCHAR
STARTCHAR 00F4
ENCODING 244
SWIDTH 400 0
DWIDTH 16 0
BBX 13 26 2 1
BITMAP
0F00
1F80
3FC0
79E0
70E0
0000
7FE0
FFF0
FFF8
FFF8
F0F8
F0F8
F0F8
F0F8
F0F8
F0F8
F0F8
F0F8
F0F8
F0F8
F0F8
F0F8
FFF8
FFF8
FFF0
FFF0
ENDCHAR
STARTCHAR 00F5
ENCODING 245
SWIDTH 400 0
DWIDTH 16 0
BBX 13 26 2 0
BITMAP
78E0
7EE0
7FE0
77E0
71E0
0000
7FE0
FFF0
FFF8
FFF8
F0F8
F0F8
F0F8
F0F8
F0F8
F0F8
F0F8
F0F8
F0F8
F0F8
F0F8
F0F8
FFF8
FFF8
FFF0
FFF0
ENDCHAR
STARTCHAR 00F6
ENCODING 246
SWIDTH 400 0
DWIDTH 16 0
BBX 13 25 2 1
BITMAP
79E0
79E0
79E0
79E0
0000
7FE0
FFF0
FFF8
FFF8
F0F8
F0F8
F0F8
F0F8
F0F8
F0F8
F0F8
F0F8
F0F8
F0F8
F0F8
F0F8
FFF8
FFF8
FFF0
FFF0
ENDCHAR
STARTCHAR 00F7
ENCODING 247
SWIDTH 475 0
DWIDTH 19 0
BBX 15 31 2 0
BITMAP
3FF8
FFFE
FFFE
FFFE
E01E
E01E
E01E
E01E
FFFE
FFFE
E01E
E01E
E01E
E01E
FFFE
FFFE
FFFE
E01E
E01E
E01E
E01E
FFFE
FFFE
FFFE
E01E
E01E
E01E
E01E
FFFE
FFFE
7FFC
ENDCHAR
STARTCHAR 00F8
ENCODING 248
SWIDTH 400 0
DWIDTH 16 0
BBX 13 26 2 -3
BITMAP
00F8
00F0
00F0
7FF0
FFF0
FFF8
FFF8
F0F8
F0F8
F0F8
F0F8
F0F8
F0F8
F0F8
F0F8
F0F8
F0F8
F0F8
F0F8
FFF8
FFF8
FFF0
FFF0
F800
F000
F000
ENDCHAR
STARTCHAR 00F9
ENCODING 249
SWIDTH 400 0
DWIDTH 16 0
BBX 13 26 2 0
BITMAP
7C00
3E00
1F00
0F00
0780
0000
F0F8
F0F8
F0F8
F0F8
F0F8
F0F8
F0F8
F0F8
F0F8
F0F8
F0F8
F0F8
F0F8
F0F8
F0F8
F0F8
FFF8
FFF8
FFF8
FEF8
ENDCHAR
STARTCHAR 00FA
ENCODING 250
SWIDTH 400 0
DWIDTH 16 0
BBX 13 26 2 0
BITMAP
03E0
07C0
0F80
0F00
1E00
0000
F0F8
F0F8
F0F8
F0F8
F0F8
F0F8
F0F8
F0F8
F0F8
F0F8
F0F8
F0F8
F0F8
F0F8
F0F8
F0F8
FFF8
FFF8
FFF8
FEF8
ENDCHAR
STARTCHAR 00FB
ENCODING 251
SWIDTH 400 0
DWIDTH 16 0
BBX 13 26 2 0
BITMAP
0F00
1F80
3FC0
39E0
70F0
0000
F0F8
F0F8
F0F8
F0F8
F0F8
F0F8
F0F8
F0F8
F0F8
F0F8
F0F8
F0F8
F0F8
F0F8
F0F8
F0F8
FFF8
FFF8
FFF8
FEF8
ENDCHAR
STARTCHAR 00FC
ENCODING 252
SWIDTH 400 0
DWIDTH 16 0
BBX 13 25 2 0
BITMAP
79E0
79E0
79E0
79E0
0000
F0F8
F0F8
F0F8
F0F8
F0F8
F0F8
F0F8
F0F8
F0F8
F0F8
F0F8
F0F8
F0F8
F0F8
F0F8
F0F8
FFF8
FFF8
FFF8
FEF8
ENDCHAR
STARTCHAR 00FD
ENCODING 253
SWIDTH 400 0
DWIDTH 16 0
BBX 14 33 1 -7
BITMAP
01F0
03E0
07C0
0780
0F00
0000
F07C
F07C
F878
F878
7878
78F8
78F0
7CF0
3CF0
3CF0
3DE0
3DE0
1FE0
1FE0
1FC0
1FC0
0FC0
0FC0
0F80
0F80
0F80
0F80
0F00
0F00
1F00
1F00
1E00
ENDCHAR
STARTCHAR 00FE
ENCODING 254
SWIDTH 400 0
DWIDTH 16 0
BBX 13 38 2 -8
BITMAP
F000
F000
F000
F000
F000
F000
F000
F000
F000
F000
F000
F0F0
FFF8
FFF8
FFF8
F0F8
F0F8
F0F8
F0F8
F0F8
F0F8
F0F8
F0F8
F0F8
F0F8
F0F8
F0F8
FFF8
FFF8
FFF0
FFE0
F000
F000
F000
F000
F000
F000
F000
ENDCHAR
STARTCHAR 00FF
ENCODING 255
SWIDTH 400 0
DWIDTH 16 0
BBX 14 32 1 -7
BITMAP
3CF0
3CF0
3CF0
3CF0
0000
F07C
F07C
F878
F878
7878
78F8
78F0
7CF0
3CF0
3CF0
3DE0
3DE0
1FE0
1FE0
1FC0
1FC0
0FC0
0FC0
0F80
0F80
0F80
0F80
0F00
0F00
1F00
1F00
1E00
ENDCHAR
STARTCHAR 0131
ENCODING 305
SWIDTH 200 0
DWIDTH 8 0
BBX 4 20 2 0
BITMAP
F0
F0
F0
F0
F0
F0
F0
F0
F0
F0
F0
F0
F0
F0
F0
F0
F0
F0
F0
F0
ENDCHAR
STARTCHAR 0141
ENCODING 321
SWIDTH 400 0
DWIDTH 16 0
BBX 14 31 1 0
BITMAP
3C00
3C00
3C00
3C00
3C00
3C00
3C00
3C00
3C00
3C00
3C00
3C00
3CC0
3FC0
3FC0
3FC0
3F80
7E00
FC00
FC00
FC00
BC00
3C00
3C00
3C00
3C00
3C00
3FFC
3FFC
3FFC
3FFC
ENDCHAR
STARTCHAR 0142
ENCODING 322
SWIDTH 250 0
DWIDTH 10 0
BBX 8 31 1 0
BITMAP
3C
3C
3C
3C
3C
3C
3C
3C
3C
3C
3C
3C
3C
3D
3F
3F
3F
7E
FC
FC
FC
BC
3C
3C
3C
3C
3C
3C
3C
3C
3C
ENDCHAR
STARTCHAR 0152
ENCODING 338
SWIDTH 650 0
DWIDTH 26 0
BBX 23 31 2 0
BITMAP
3FFFFC
FFFFFC
FFFFFC
FFFFFC
F03E00
F03E00
F03E00
F03E00
F03E00
F03E00
F03E00
F03E00
F03E00
F03FF8
F03FF8
F03FF8
F03FF8
F03E00
F03E00
F03E00
F03E00
F03E00
F03E00
F03E00
F03E00
F03E00
F03E00
FFFFFE
FFFFFE
FFFFFE
7FFFFE
ENDCHAR
STARTCHAR 0153
ENCODING 339
SWIDTH 600 0
DWIDTH 24 0
BBX 21 20 2 0
BITMAP
7FFFE0
FFFFF0
FFFFF8
FFFFF8
F0F0F8
F0F0F8
F0F0F8
F0F0F8
F0FFF8
F0FFF8
F0FFF0
F0F000
F0F000
F0F0F8
F0F0F8
F0F0F8
FFF0F8
FFFFF8
FFFFF0
FFFFF0
ENDCHAR
STARTCHAR 0160
ENCODING 352
SWIDTH 450 0
DWIDTH 18 0
BBX 14 37 2 1
BITMAP
3870
1CF0
0FE0
0FC0
0780
0000
3FF0
FFFC
FFFC
FFFC
F03C
F03C
F03C
F03C
F03C
F03C
F800
FC00
7E00
3F00
1F80
0FC0
07E0
03F8
01FC
00FC
007C
F03C
F03C
F03C
F03C
F03C
F03C
FFFC
FFFC
FFFC
7FF8
ENDCHAR
STARTCHAR 0161
ENCODING 353
SWIDTH 400 0
DWIDTH 16 0
BBX 12 26 2 1
BITMAP
70E0
7BC0
3F80
1F00
0F00
0000
7FE0
FFF0
FFF0
FFF0
F0F0
F0F0
F0F0
FC00
FE00
7F80
1FE0
0FF0
03F0
F0F0
F0F0
F0F0
F0F0
FFF0
FFF0
FFE0
ENDCHAR
STARTCHAR 0178
ENCODING 376
SWIDTH 450 0
DWIDTH 18 0
BBX 16 36 1 1
BITMAP
1E78
1E78
1E78
1E78
0000
F01F
F81F
F81F
F81E
783E
7C3E
7C3C
3C3C
3C7C
3E78
1E78
1EF8
1FF0
0FF0
0FF0
0FE0
07E0
07E0
07E0
07C0
03C0
03C0
03C0
03C0
03C0
03C0
03C0
03C0
03C0
03C0
03C0
ENDCHAR
STARTCHAR 017D
ENCODING 381
SWIDTH 400 0
DWIDTH 16 0
BBX 14 37 1 1
BITMAP
3870
1CE0
1FE0
0FC0
0780
0000
FFFC
FFFC
FFFC
FFFC
FFF8
00F8
00F8
01F0
01F0
01E0
03E0
03E0
07C0
07C0
07C0
0F80
0F80
0F80
1F00
1F00
1F00
3E00
3E00
3C00
7C00
7C00
7800
FFFC
FFFC
FFFC
FFFC
ENDCHAR
STARTCHAR 017E
ENCODING 382
SWIDTH 350 0
DWIDTH 14 0
BBX 12 26 1 1
BITMAP
70E0
3DC0
1FC0
1F80
0F00
0000
FFF0
FFF0
FFF0
FFE0
03E0
03C0
07C0
07C0
0F80
0F80
1F00
1F00
3E00
3E00
7C00
7C00
FFF0
FFF0
FFF0
FFF0
ENDCHAR
STARTCHAR 0192
ENCODING 402
SWIDTH 350 0
DWIDTH 14 0
BBX 16 38 -2 -8
BITMAP
003F
00FF
00FF
01FF
01F0
01F0
01E0
01E0
01E0
01E0
03E0
0FFC
0FFC
0FFC
0FFC
03C0
03C0
03C0
07C0
07C0
07C0
0780
0780
0780
0780
0F80
0F80
0F80
0F00
0F00
0F00
0F00
0F00
1F00
FF00
FF00
FE00
FE00
ENDCHAR
STARTCHAR 02C6
ENCODING 710
SWIDTH 400 0
DWIDTH 16 0
BBX 11 5 3 22
BITMAP
1E00
3F00
7F80
73C0
E1E0
ENDCHAR
STARTCHAR 02C7
ENCODING 711
SWIDTH 400 0
DWIDTH 16 0
BBX 10 5 3 22
BITMAP
E1C0
7B80
3F80
3F00
1E00
ENDCHAR
STARTCHAR 02C9
ENCODING 713
SWIDTH 400 0
DWIDTH 16 0
BBX 10 3 3 22
BITMAP
FFC0
FFC0
FFC0
ENDCHAR
STARTCHAR 02D8
ENCODING 728
SWIDTH 400 0
DWIDTH 16 0
BBX 10 5 3 22
BITMAP
F1C0
F1C0
FFC0
7FC0
7F80
ENDCHAR
STARTCHAR 02D9
ENCODING 729
SWIDTH 400 0
DWIDTH 16 0
BBX 4 4 6 22
BITMAP
F0
F0
F0
F0
ENDCHAR
STARTCHAR 02DA
ENCODING 730
SWIDTH 400 0
DWIDTH 16 0
BBX 9 8 4 22
BITMAP
FF00
FF80
E380
E380
E380
FF80
FF80
FF00
ENDCHAR
STARTCHAR 02DB
ENCODING 731
SWIDTH 400 0
DWIDTH 16 0
BBX 8 8 4 -7
BITMAP
3C
78
F0
E0
E0
FF
FF
7F
ENDCHAR
STARTCHAR 02DC
ENCODING 732
SWIDTH 400 0
DWIDTH 16 0
BBX 10 5 3 21
BITMAP
71C0
FDC0
FFC0
EFC0
E3C0
ENDCHAR
STARTCHAR 02DD
ENCODING 733
SWIDTH 400 0
DWIDTH 16 0
BBX 14 5 1 22
BITMAP
1F7C
3EF8
38F0
71E0
E3C0
ENDCHAR
STARTCHAR 037E
ENCODING 894
SWIDTH 175 0
DWIDTH 7 0
BBX 5 20 1 -3
BITMAP
F8
F8
F8
F8
F8
00
00
00
00
00
00
00
F8
F8
F8
F0
F0
F0
E0
E0
ENDCHAR
STARTCHAR 03BC
ENCODING 956
SWIDTH 625 0
DWIDTH 25 0
BBX 21 31 2 0
BITMAP
F00078
F800F8
FC01F8
FE01F8
FF03F8
FF07F8
FF8FF8
FFDFF8
F7FF78
F3FE78
F1FE78
F0FC78
F0F878
F0F878
F0F878
F0F878
F0F878
F0F878
F0F878
F0F878
F0F878
F0F878
F0F878
F0F878
F0F878
F0F878
F0F878
F0F878
F0F878
F0F878
F0F878
ENDCHAR
STARTCHAR 03C0
ENCODING 960
SWIDTH 575 0
DWIDTH 23 0
BBX 20 31 2 0
BITMAP
7FFFC0
FFFFE0
C00070
C00070
C00070
C00070
C00070
C7FC70
C7FC70
C7FC70
C71C70
C71C70
C71C70
C71C70
C71C70
C71C70
C7FC70
C7FC70
C70070
C70070
C70070
C70070
C70070
C70070
C00070
C00070
C00070
C00070
C00070
FFFFE0
FFFFE0
ENDCHAR
STARTCHAR 2013
ENCODING 8211
SWIDTH 425 0
DWIDTH 17 0
BBX 15 4 1 9
BITMAP
FFFE
FFFE
FFFE
FFFE
ENDCHAR
STARTCHAR 2014
ENCODING 8212
SWIDTH 650 0
DWIDTH 26 0
BBX 24 4 1 9
BITMAP
FFFFFF
FFFFFF
FFFFFF
FFFFFF
ENDCHAR
STARTCHAR 2018
ENCODING 8216
SWIDTH 200 0
DWIDTH 8 0
BBX 6 10 1 21
BITMAP
1C
38
38
38
38
78
78
78
F8
F8
ENDCHAR
STARTCHAR 2019
ENCODING 8217
SWIDTH 200 0
DWIDTH 8 0
BBX 6 10 1 21
BITMAP
7C
7C
78
78
78
70
70
70
F0
E0
ENDCHAR
STARTCHAR 201A
ENCODING 8218
SWIDTH 200 0
DWIDTH 8 0
BBX 5 9 1 -4
BITMAP
78
78
78
78
70
F0
F0
E0
E0
ENDCHAR
STARTCHAR 201C
ENCODING 8220
SWIDTH 350 0
DWIDTH 14 0
BBX 12 10 1 21
BITMAP
1C70
3870
3870
38F0
38F0
78F0
79E0
79E0
F9E0
F9E0
ENDCHAR
STARTCHAR 201D
ENCODING 8221
SWIDTH 350 0
DWIDTH 14 0
BBX 12 10 1 21
BITMAP
7CF0
7CF0
78F0
79E0
79E0
71E0
71E0
71C0
F1C0
E1C0
ENDCHAR
STARTCHAR 201E
ENCODING 8222
SWIDTH 350 0
DWIDTH 14 0
BBX 12 9 1 -4
BITMAP
7CF0
78F0
79F0
79E0
71E0
71E0
71C0
F1C0
E1C0
ENDCHAR
STARTCHAR 2020
ENCODING 8224
SWIDTH 450 0
DWIDTH 18 0
BBX 15 31 1 0
BITMAP
03C0
03C0
03C0
03C0
03C0
03C0
03C0
03C0
FFFE
FFFE
FFFE
FFFE
03C0
03C0
03C0
03C0
03C0
03C0
03C0
03C0
03C0
03C0
03C0
03C0
03C0
03C0
03C0
03C0
03C0
03C0
03C0
ENDCHAR
STARTCHAR 2021
ENCODING 8225
SWIDTH 450 0
DWIDTH 18 0
BBX 15 31 1 0
BITMAP
03C0
03C0
03C0
03C0
03C0
03C0
03C0
03C0
FFFE
FFFE
FFFE
FFFE
03C0
03C0
03C0
03C0
03C0
03C0
03C0
FFFE
FFFE
FFFE
FFFE
03C0
03C0
03C0
03C0
03C0
03C0
03C0
03C0
ENDCHAR
STARTCHAR 2022
ENCODING 8226
SWIDTH 450 0
DWIDTH 18 0
BBX 15 15 2 7
BITMAP
7FF8
FFFC
FFFE
FFFE
FFFE
FFFE
FFFE
FFFE
FFFE
FFFE
FFFE
FFFE
FFFE
FFFC
7FFC
ENDCHAR
STARTCHAR 2026
ENCODING 8230
SWIDTH 550 0
DWIDTH 22 0
BBX 20 5 1 0
BITMAP
F8F1F0
F8F1F0
F8F1F0
F8F1F0
F8F1F0
ENDCHAR
STARTCHAR 2030
ENCODING 8240
SWIDTH 950 0
DWIDTH 38 0
BBX 36 31 1 0
BITMAP
3F801C0000
7FC03C0000
7FC0380000
F1C0780000
F1C0F00000
F1C0F00000
F1C1E00000
F1C1C00000
F1C3C00000
F1C3800000
F1C7800000
F1C7000000
F1CF000000
FFDE000000
7FDE000000
3FBC000000
003FFE3FE0
007BFF3FF0
0073FF3FF0
00F38F38F0
00E38F38F0
01E38F38F0
01C38F38F0
03C38F38F0
07838F38F0
07838F38F0
0F038F38F0
0E038F38F0
1E03FF3FF0
1C03FF3FF0
3C03FE3FE0
ENDCHAR
STARTCHAR 2039
ENCODING 8249
SWIDTH 325 0
DWIDTH 13 0
BBX 10 16 1 3
BITMAP
07C0
0F80
0F80
1F00
3E00
3E00
7C00
F800
F800
7C00
3E00
3E00
1F00
0F80
0F80
07C0
ENDCHAR
STARTCHAR 203A
ENCODING 8250
SWIDTH 325 0
DWIDTH 13 0
BBX 9 16 2 3
BITMAP
F800
F800
7C00
3E00
3E00
1F00
0F80
0F80
0F80
0F80
1F00
3E00
3E00
7C00
F800
F800
ENDCHAR
STARTCHAR 2044
ENCODING 8260
SWIDTH 450 0
DWIDTH 18 0
BBX 16 31 1 0
BITMAP
000F
001F
001E
001E
003C
003C
007C
0078
0078
00F8
00F0
01F0
01E0
01E0
03E0
03C0
07C0
0780
0780
0F80
0F00
1F00
1E00
1E00
3E00
3C00
7C00
7800
7800
F800
F000
ENDCHAR
STARTCHAR 20AC
ENCODING 8364
SWIDTH 475 0
DWIDTH 19 0
BBX 17 31 0 0
BITMAP
07FE00
1FFF80
3FFF80
3FFF80
3E0780
3E0780
3E0780
3E0780
3E0780
3E0780
3E0000
3E0000
FFF800
FFF800
3E0000
3E0000
FFF800
FFF800
FFF800
3E0000
3E0000
3E0780
3E0780
3E0780
3E0780
3E0780
3E0780
3FFF80
3FFF80
3FFF80
1FFF00
ENDCHAR
STARTCHAR 2122
ENCODING 8482
SWIDTH 600 0
DWIDTH 24 0
BBX 22 18 1 12
BITMAP
FFB81C
FFBC3C
FFBC3C
1C3C3C
1C3C7C
1C3E7C
1C3E7C
1C3E7C
1C3FFC
1C3FDC
1C3BDC
1C3BDC
1C3BDC
1C3B9C
1C399C
1C399C
1C381C
1C381C
ENDCHAR
STARTCHAR 2126
ENCODING 8486
SWIDTH 475 0
DWIDTH 19 0
BBX 15 31 2 0
BITMAP
3FF0
FFFC
FFFE
FFFE
F03E
F03E
F03E
F03E
F03E
F03E
F03E
F03E
F03E
F03E
F03E
FFFE
FFFE
FFFE
FFFE
F03E
F03E
F03E
F03E
F03E
F03E
F03E
F03E
F03E
F03E
F03E
F03E
ENDCHAR
STARTCHAR 2202
ENCODING 8706
SWIDTH 475 0
DWIDTH 19 0
BBX 15 31 2 0
BITMAP
3FF8
FFFE
FFFE
FFFE
E01E
E01E
E01E
E01E
FFFE
FFFE
E01E
E01E
E01E
E01E
FFFE
FFFE
FFFE
E01E
E01E
E01E
E01E
FFFE
FFFE
FFFE
E01E
E01E
E01E
E01E
FFFE
FFFE
7FFC
ENDCHAR
STARTCHAR 2206
ENCODING 8710
SWIDTH 475 0
DWIDTH 19 0
BBX 15 31 2 0
BITMAP
F03E
F03E
F03E
F03E
F03E
F03E
F03E
F03E
F03E
F03E
F03E
F03E
F03E
F03E
F03E
F03E
FFFE
FFFE
FFFE
7FF8
07C0
07C0
07C0
07C0
07C0
07C0
07C0
07C0
07C0
07C0
07C0
ENDCHAR
STARTCHAR 220F
ENCODING 8719
SWIDTH 475 0
DWIDTH 19 0
BBX 15 31 2 0
BITMAP
3FF8
FFFE
FFFE
FFFE
E01E
E01E
E01E
E01E
FFFE
FFFE
E01E
E01E
E01E
E01E
FFFE
FFFE
FFFE
E01E
E01E
E01E
E01E
FFFE
FFFE
FFFE
E01E
E01E
E01E
E01E
FFFE
FFFE
7FFC
ENDCHAR
STARTCHAR 2211
ENCODING 8721
SWIDTH 475 0
DWIDTH 19 0
BBX 15 31 2 0
BITMAP
3FF8
FFFE
FFFE
FFFE
E01E
E01E
E01E
E01E
FFFE
FFFE
E01E
E01E
E01E
E01E
FFFE
FFFE
FFFE
E01E
E01E
E01E
E01E
FFFE
FFFE
FFFE
E01E
E01E
E01E
E01E
FFFE
FFFE
7FFC
ENDCHAR
STARTCHAR 2212
ENCODING 8722
SWIDTH 475 0
DWIDTH 19 0
BBX 15 31 2 0
BITMAP
3FF8
FFFE
FFFE
FFFE
E01E
E01E
E01E
E01E
FFFE
FFFE
E01E
E01E
E01E
E01E
FFFE
FFFE
FFFE
E01E
E01E
E01E
E01E
FFFE
FFFE
FFFE
E01E
E01E
E01E
E01E
FFFE
FFFE
7FFC
ENDCHAR
STARTCHAR 221A
ENCODING 8730
SWIDTH 475 0
DWIDTH 19 0
BBX 19 31 0 -1
BITMAP
0003E0
0003C0
0007C0
0007C0
000780
000780
000F80
000F80
000F00
000F00
001F00
001F00
001E00
001E00
003E00
003C00
003C00
003C00
007C00
007800
F87800
7C7800
7CF000
3EF000
3EF000
1EF000
1FE000
0FE000
0FE000
07C000
07C000
ENDCHAR
STARTCHAR 221E
ENCODING 8734
SWIDTH 675 0
DWIDTH 27 0
BBX 25 31 1 0
BITMAP
0F87FE00
3F9FFF00
3F9FFF80
3F9FFF80
3C1E0F80
3C1E0F80
3C1E0F80
3C1E0F80
3C1E0000
3C1E0000
3C1E0000
FFFFFF80
FFFFFF80
FFFFFF80
FFFFFF80
3C1E0F80
3C1E0F80
3C1E0F80
3C1E0F80
3C1E0F80
3C1E0F80
3C1E0F80
3C1E0F80
3C1E0F80
3C1E0F80
3C1E0F80
3C1E0F80
3C1E0F80
3C1E0F80
3C1E0F80
3C1E0F80
ENDCHAR
STARTCHAR 222B
ENCODING 8747
SWIDTH 475 0
DWIDTH 19 0
BBX 15 31 2 0
BITMAP
3FF8
FFFE
FFFE
FFFE
E01E
E01E
E01E
E01E
FFFE
FFFE
E01E
E01E
E01E
E01E
FFFE
FFFE
FFFE
E01E
E01E
E01E
E01E
FFFE
FFFE
FFFE
E01E
E01E
E01E
E01E
FFFE
FFFE
7FFC
ENDCHAR
STARTCHAR 2248
ENCODING 8776
SWIDTH 525 0
DWIDTH 21 0
BBX 18 31 2 0
BITMAP
0FF000
3FFC00
7FFC00
7FFE00
7C3E00
7C3E00
7C3E00
7C3E00
3C0000
3E0000
1E0000
1F0000
0F0000
0F8000
0F8000
1FC7C0
3FC780
7FEF80
FDEF00
F9FF00
F0FE00
F0FE00
F07C00
F07C00
F07E00
F0FE00
F0FF00
FFEF00
FFEF80
FFC780
7FC7C0
ENDCHAR
STARTCHAR 2260
ENCODING 8800
SWIDTH 500 0
DWIDTH 20 0
BBX 19 31 1 0
BITMAP
0F87E0
3F9FE0
3F9FE0
3F9FE0
3C1E00
3C1E00
3C1E00
3C1E00
3C1E00
3C1E00
3C1E00
FFFFC0
FFFFC0
FFFFC0
FFFFC0
3C1E00
3C1E00
3C1E00
3C1E00
3C1E00
3C1E00
3C1E00
3C1E00
3C1E00
3C1E00
3C1E00
3C1E00
3C1E00
3C1E00
3C1E00
3C1E00
ENDCHAR
STARTCHAR 2264
ENCODING 8804
SWIDTH 475 0
DWIDTH 19 0
BBX 15 31 2 0
BITMAP
3FF8
FFFE
FFFE
FFFE
E01E
E01E
E01E
E01E
FFFE
FFFE
E01E
E01E
E01E
E01E
FFFE
FFFE
FFFE
E01E
E01E
E01E
E01E
FFFE
FFFE
FFFE
E01E
E01E
E01E
E01E
FFFE
FFFE
7FFC
ENDCHAR
STARTCHAR 2265
ENCODING 8805
SWIDTH 475 0
DWIDTH 19 0
BBX 15 31 2 0
BITMAP
3FF8
FFFE
FFFE
FFFE
E01E
E01E
E01E
E01E
FFFE
FFFE
E01E
E01E
E01E
E01E
FFFE
FFFE
FFFE
E01E
E01E
E01E
E01E
FFFE
FFFE
FFFE
E01E
E01E
E01E
E01E
FFFE
FFFE
7FFC
ENDCHAR
STARTCHAR 22C5
ENCODING 8901
SWIDTH 200 0
DWIDTH 8 0
BBX 5 5 1 10
BITMAP
F8
F8
F8
F8
F8
ENDCHAR
STARTCHAR 25CA
ENCODING 9674
SWIDTH 475 0
DWIDTH 19 0
BBX 15 31 2 0
BITMAP
3FF8
FFFE
FFFE
FFFE
E01E
E01E
E01E
E01E
FFFE
FFFE
E01E
E01E
E01E
E01E
FFFE
FFFE
FFFE
E01E
E01E
E01E
E01E
FFFE
FFFE
FFFE
E01E
E01E
E01E
E01E
FFFE
FFFE
7FFC
ENDCHAR
STARTCHAR F8FF
ENCODING 63743
SWIDTH 475 0
DWIDTH 19 0
BBX 15 31 2 0
BITMAP
3FF8
FFFE
FFFE
FFFE
E01E
E01E
E01E
E01E
FFFE
FFFE
E01E
E01E
E01E
E01E
FFFE
FFFE
FFFE
E01E
E01E
E01E
E01E
FFFE
FFFE
FFFE
E01E
E01E
E01E
E01E
FFFE
FFFE
7FFC
ENDCHAR
STARTCHAR FB01
ENCODING 64257
SWIDTH 450 0
DWIDTH 18 0
BBX 15 31 1 0
BITMAP
0FF8
3FFE
3FFE
3FFE
3C1E
3C1E
3C1E
3C1E
3C00
3C00
3C00
FFFE
FFFE
FFFE
FFFE
3C1E
3C1E
3C1E
3C1E
3C1E
3C1E
3C1E
3C1E
3C1E
3C1E
3C1E
3C1E
3C1E
3C1E
3C1E
3C1E
ENDCHAR
STARTCHAR FB02
ENCODING 64258
SWIDTH 450 0
DWIDTH 18 0
BBX 15 31 1 0
BITMAP
0FFE
3FFE
3FFE
3FFE
3C1E
3C1E
3C1E
3C1E
3C1E
3C1E
3C1E
FF9E
FF9E
FF9E
FF9E
3C1E
3C1E
3C1E
3C1E
3C1E
3C1E
3C1E
3C1E
3C1E
3C1E
3C1E
3C1E
3C1E
3C1E
3C1E
3C1E
ENDCHAR
ENDFONT
